<svg width="20" height="18" viewBox="0 0 20 18" fill="none" xmlns="http://www.w3.org/2000/svg">
<path fill-rule="evenodd" clip-rule="evenodd" d="M18.1468 2.08465C17.1332 1.07627 15.7591 0.509854 14.3263 0.509854C12.8936 0.509854 11.5195 1.07627 10.5059 2.08465L10.3176 2.27217L10.1293 2.08465C9.11652 1.0748 7.74244 0.506984 6.30931 0.506105C4.87617 0.505225 3.50139 1.07136 2.48739 2.07996C1.47338 3.08856 0.903228 4.45701 0.902345 5.88427C0.901462 7.31153 1.46993 8.68068 2.48268 9.69053L8.66812 15.8525L8.68695 15.8731L9.16898 16.355C9.47345 16.6566 10.3147 17.543 10.3147 17.543C10.3147 17.543 11.156 16.6566 11.4605 16.355L18.1412 9.69803C18.645 9.19936 19.045 8.60646 19.3181 7.95339C19.5912 7.30032 19.7321 6.59995 19.7326 5.89251C19.7332 5.18506 19.5933 4.48448 19.3212 3.83101C19.049 3.17754 18.6499 2.58406 18.1468 2.08465ZM14.0265 1.63125C15.4348 1.57722 16.211 1.71992 17.2461 2.6969C17.8362 3.25387 18.1065 3.52732 18.3916 4.2946C18.6711 5.04698 18.6639 5.6186 18.5914 6.33456C18.5189 7.05053 18.3 7.44797 17.9684 8.0831C17.6345 8.72284 17.2877 9.12316 16.8449 9.55059L11.322 14.9513C11.2807 14.9911 11.2372 15.0352 11.1918 15.0812C10.9424 15.3339 10.3151 15.9693 10.3151 15.9693C10.3151 15.9693 9.6877 15.3339 9.43834 15.0812C9.39291 15.0352 9.34942 14.9911 9.30818 14.9513L8.88458 14.5382C8.88458 14.5382 4.45654 10.2769 3.56654 9.41131C2.67655 8.54573 1.97742 7.56432 1.94251 6.04315C1.90857 4.56405 2.20372 3.75291 3.27077 2.75241C4.30901 1.77891 5.20011 1.50272 6.60848 1.55672C8.1274 1.61497 9.26208 2.5723 10.1521 3.43788L10.3175 3.59861L10.483 3.43788C11.3738 2.57355 12.5076 1.68951 14.0265 1.63125Z" fill="white"/>
</svg>
