<svg width="16" height="16" viewBox="0 0 16 16" fill="none" xmlns="http://www.w3.org/2000/svg">
<path d="M1 4.02384H14.91M14.3052 14.91H1.60513C1.27112 14.91 1.00035 14.6392 1.00035 14.3052V1.60479C1.00035 1.27078 1.27112 1 1.60513 1H14.3052C14.6392 1 14.91 1.27078 14.91 1.60479V14.3052C14.91 14.6392 14.6392 14.91 14.3052 14.91ZM2.81442 2.51185C2.81442 2.67886 2.67903 2.81425 2.51203 2.81425C2.34502 2.81425 2.20964 2.67886 2.20964 2.51185C2.20964 2.34484 2.34502 2.20945 2.51203 2.20945C2.67903 2.20945 2.81442 2.34484 2.81442 2.51185ZM5.23353 2.51185C5.23353 2.67886 5.09815 2.81425 4.93114 2.81425C4.76414 2.81425 4.62875 2.67886 4.62875 2.51185C4.62875 2.34484 4.76414 2.20945 4.93114 2.20945C5.09815 2.20945 5.23353 2.34484 5.23353 2.51185ZM7.65265 2.51185C7.65265 2.67886 7.51727 2.81425 7.35026 2.81425C7.18325 2.81425 7.04787 2.67886 7.04787 2.51185C7.04787 2.34484 7.18325 2.20945 7.35026 2.20945C7.51727 2.20945 7.65265 2.34484 7.65265 2.51185ZM2.51205 5.23337H4.93116V7.04775H2.51205V5.23337ZM6.74544 5.23337H9.16456V7.04775H6.74544V5.23337ZM10.9788 5.23337H13.398V7.04775H10.9788V5.23337ZM2.51205 8.25734H4.93116V10.0717H2.51205V8.25734ZM6.74544 8.25734H9.16456V10.0717H6.74544V8.25734ZM10.9788 8.25734H13.398V10.0717H10.9788V8.25734ZM2.51205 11.2813H4.93116V13.0957H2.51205V11.2813ZM6.74544 11.2813H9.16456V13.0957H6.74544V11.2813ZM10.9788 11.2813H13.398V13.0957H10.9788V11.2813Z" stroke="#313840" stroke-width="0.8" stroke-miterlimit="10" stroke-linecap="round" stroke-linejoin="round"/>
</svg>
