<svg width="20" height="20" viewBox="0 0 20 20" fill="none" xmlns="http://www.w3.org/2000/svg">
<path d="M15.3488 19.9119C14.2055 19.9119 13.2746 18.981 13.2746 17.8377C13.2746 16.6945 14.2055 15.7636 15.3488 15.7636C16.492 15.7636 17.4229 16.6945 17.4229 17.8377C17.4229 18.981 16.492 19.9119 15.3488 19.9119ZM15.3488 16.5933C14.6626 16.5933 14.1043 17.1516 14.1043 17.8377C14.1043 18.5239 14.6626 19.0822 15.3488 19.0822C16.0349 19.0822 16.5933 18.5239 16.5933 17.8377C16.5933 17.1516 16.0349 16.5933 15.3488 16.5933Z" fill="#313840"/>
<path d="M7.05213 19.9119C5.90886 19.9119 4.97798 18.981 4.97798 17.8377C4.97798 16.6945 5.90886 15.7636 7.05213 15.7636C8.19541 15.7636 9.12629 16.6945 9.12629 17.8377C9.12629 18.981 8.19541 19.9119 7.05213 19.9119ZM7.05213 16.5933C6.366 16.5933 5.80764 17.1516 5.80764 17.8377C5.80764 18.5239 6.366 19.0822 7.05213 19.0822C7.73826 19.0822 8.29663 18.5239 8.29663 17.8377C8.29663 17.1516 7.73826 16.5933 7.05213 16.5933Z" fill="#313840"/>
<path d="M17.0081 14.9339H7.43295C6.05405 14.9339 4.85602 13.9524 4.58555 12.6001L2.56366 2.48899H0.414831C0.185844 2.48899 0 2.30314 0 2.07416C0 1.84517 0.185844 1.65933 0.414831 1.65933H2.90382C3.10128 1.65933 3.27136 1.79871 3.31035 1.99285L5.39944 12.4366C5.59276 13.4032 6.44814 14.1043 7.43295 14.1043H17.0081C17.2371 14.1043 17.4229 14.2901 17.4229 14.5191C17.4229 14.7481 17.2371 14.9339 17.0081 14.9339Z" fill="#313840"/>
<path d="M5.39281 13.2746C5.18788 13.2746 5.01033 13.1228 4.98212 12.9145C4.95143 12.688 5.11155 12.479 5.33888 12.4483L17.5042 10.8263L17.851 9.44073C17.9066 9.21755 18.1298 9.08232 18.3538 9.13873C18.5761 9.19432 18.7114 9.41916 18.6558 9.64151L18.241 11.3008C18.2003 11.4659 18.0618 11.5896 17.8933 11.612L5.44839 13.2713C5.42848 13.2738 5.41023 13.2746 5.39281 13.2746Z" fill="#313840"/>
<path d="M9.54112 4.97798H3.73348C3.50449 4.97798 3.31865 4.79213 3.31865 4.56314C3.31865 4.33416 3.50449 4.14831 3.73348 4.14831H9.54112C9.77011 4.14831 9.95595 4.33416 9.95595 4.56314C9.95595 4.79213 9.77011 4.97798 9.54112 4.97798Z" fill="#313840"/>
<path d="M15.3488 9.12629C12.8324 9.12629 10.7856 7.07951 10.7856 4.56314C10.7856 2.04678 12.8324 0 15.3488 0C17.8651 0 19.9119 2.04678 19.9119 4.56314C19.9119 7.07951 17.8651 9.12629 15.3488 9.12629ZM15.3488 0.829663C13.2904 0.829663 11.6153 2.50475 11.6153 4.56314C11.6153 6.62154 13.2904 8.29663 15.3488 8.29663C17.4072 8.29663 19.0822 6.62154 19.0822 4.56314C19.0822 2.50475 17.4072 0.829663 15.3488 0.829663Z" fill="#313840"/>
<path d="M14.5191 6.6373C14.4129 6.6373 14.3067 6.59665 14.2254 6.51617L12.5661 4.85684C12.4043 4.69506 12.4043 4.43206 12.5661 4.27027C12.7279 4.10849 12.9909 4.10849 13.1526 4.27027L14.5191 5.6359L17.544 2.61095C17.7058 2.44916 17.9688 2.44916 18.1306 2.61095C18.2924 2.77273 18.2924 3.03574 18.1306 3.19752L14.812 6.51617C14.7315 6.59665 14.6253 6.6373 14.5191 6.6373Z" fill="#313840"/>
</svg>
