<svg width="26" height="28" viewBox="0 0 26 28" fill="none" xmlns="http://www.w3.org/2000/svg">
<path d="M24.4819 8.70353L23.9893 8.23607L25.0074 7.12123C25.3439 6.75301 25.6044 6.32192 25.774 5.85265C25.9436 5.38339 26.019 4.88518 25.9959 4.38655C25.9728 3.88791 25.8516 3.39866 25.6393 2.94681C25.4269 2.49496 25.1276 2.08938 24.7585 1.75331L23.9052 0.993763C23.5367 0.656957 23.1054 0.396169 22.6361 0.226338C22.1668 0.0565072 21.6687 -0.0190276 21.1703 0.00406085C20.6719 0.0271492 20.1831 0.148406 19.7318 0.360887C19.2805 0.573368 18.8757 0.872895 18.5404 1.24231L1.98137 19.4595C1.87133 19.5792 1.79151 19.7235 1.74858 19.8803L0.0297846 26.7342C-0.0143265 26.9128 -0.00936204 27.1 0.0441512 27.276C0.0976645 27.452 0.197736 27.6103 0.333772 27.7342C0.469807 27.858 0.636745 27.9428 0.816913 27.9795C0.99708 28.0162 1.18377 28.0035 1.35723 27.9427L8.02427 25.6017C8.18424 25.5457 8.32771 25.4507 8.4417 25.3253L22.6123 9.76136L23.1049 10.2288C23.2136 10.3274 23.3018 10.4465 23.3644 10.5792C23.427 10.712 23.4628 10.8558 23.4697 11.0024C23.4766 11.149 23.4545 11.2954 23.4046 11.4334C23.3548 11.5714 23.2782 11.6981 23.1792 11.8063L18.0886 17.3805C17.9986 17.4796 17.929 17.5955 17.8838 17.7216C17.8385 17.8477 17.8186 17.9815 17.825 18.1153C17.8314 18.2491 17.8642 18.3804 17.9213 18.5017C17.9784 18.6229 18.0589 18.7317 18.158 18.8219C18.2571 18.912 18.373 18.9818 18.4991 19.0272C18.6251 19.0725 18.7588 19.0926 18.8926 19.0863C19.0263 19.08 19.1575 19.0473 19.2786 18.9903C19.3997 18.9332 19.5084 18.8528 19.5984 18.7537L24.689 13.1795C24.9682 12.8733 25.1843 12.5151 25.325 12.1251C25.4656 11.7352 25.528 11.3213 25.5086 10.9071C25.4892 10.4928 25.3884 10.0864 25.2119 9.71111C25.0354 9.33579 24.7867 8.99891 24.48 8.71975L24.4819 8.70353ZM2.46135 25.3921L3.47413 21.377C4.14795 21.5235 4.77132 21.8454 5.28119 22.3101C5.79106 22.7749 6.16934 23.3661 6.37778 24.0238L2.46135 25.3921ZM23.4963 5.76018L8.05713 22.7264C7.72446 21.996 7.24715 21.3406 6.6541 20.8C6.06105 20.2594 5.36461 19.8448 4.60696 19.5812L20.0461 2.61505C20.2004 2.444 20.3868 2.30506 20.5948 2.20619C20.8028 2.10731 21.0283 2.05043 21.2584 2.03879C21.4884 2.02715 21.7185 2.06099 21.9356 2.13836C22.1527 2.21574 22.3524 2.33514 22.5234 2.48974L23.3825 3.27049C23.5542 3.42607 23.6935 3.61412 23.7922 3.82378C23.891 4.03345 23.9473 4.26057 23.9578 4.49205C23.9684 4.72352 23.9331 4.95476 23.8538 5.17242C23.7746 5.39008 23.6531 5.58984 23.4963 5.76018Z" fill="#313840"/>
</svg>
