<svg width="27" height="27" viewBox="0 0 27 27" fill="none" xmlns="http://www.w3.org/2000/svg">
<path d="M13.4628 11.0218C16.3124 11.0218 18.6626 8.76579 18.6626 5.96724C18.6626 3.1687 16.3418 0.941284 13.4628 0.941284C10.5838 0.941284 8.26291 3.19725 8.26291 5.9958C8.26291 8.79435 10.6131 11.0218 13.4628 11.0218ZM13.4628 1.51242C15.5486 1.51242 17.3406 2.88313 17.8988 4.76787C17.6638 4.79642 17.4581 4.82498 17.2231 4.82498C15.8424 4.82498 14.5498 4.22529 13.6684 3.19725L13.4334 2.94025L13.1984 3.19725C12.317 4.22529 11.0244 4.82498 9.64367 4.82498C9.43802 4.82498 9.23238 4.79642 8.99736 4.76787C9.58491 2.88313 11.377 1.51242 13.4628 1.51242ZM8.90922 5.31044C9.14425 5.339 9.40865 5.36756 9.67305 5.36756C11.1126 5.36756 12.4639 4.79642 13.4334 3.79694C14.4029 4.79642 15.7542 5.36756 17.1937 5.36756C17.4581 5.36756 17.7225 5.339 17.9869 5.31044C18.0163 5.53889 18.0457 5.73879 18.0457 5.96724C18.0457 8.42311 15.9893 10.4506 13.4334 10.4506C10.8775 10.4506 8.82109 8.45167 8.82109 5.96724C8.85047 5.76735 8.87985 5.53889 8.90922 5.31044ZM25.9777 23.9293L23.1868 15.191C22.7461 12.9351 20.7485 11.3073 18.3982 11.3073H16.1361L16.0774 11.3359C15.2548 11.7071 14.3735 11.8785 13.4628 11.8785C12.5521 11.8785 11.6707 11.7071 10.8482 11.3359L10.7894 11.3073H8.61545C6.20647 11.3073 4.79634 12.421 3.82688 15.1625C3.09243 17.3042 1.06537 23.9293 1.03599 23.9865V24.015C0.918481 24.5861 1.09475 25.1573 1.47666 25.6142C1.88795 26.0711 2.4755 26.3566 3.09243 26.3566H8.38043V25.1002C8.46856 25.1002 8.55669 25.1287 8.64483 25.1287C9.93745 25.1287 10.995 24.1578 11.1419 22.9299H15.9305C16.048 24.1578 17.1056 25.1287 18.4276 25.1287C18.5157 25.1287 18.6039 25.1287 18.692 25.1002V26.3566H23.98C24.5676 26.3566 25.1257 26.0996 25.5076 25.6427C25.8896 25.1573 26.0658 24.529 25.9777 23.9293ZM8.64483 24.5576C8.55669 24.5576 8.46856 24.5576 8.38043 24.529V22.9299H10.525C10.4075 23.8437 9.61429 24.5576 8.64483 24.5576ZM12.4933 14.934H14.5498V17.7326L13.5215 16.8473L12.4933 17.7326V14.934ZM13.5215 17.5898L15.1373 18.989V14.934H17.7813V22.3587H9.26176V14.934H11.9058V19.0176L13.5215 17.5898ZM18.3982 24.5576C17.4288 24.5576 16.6356 23.8437 16.5181 22.9299H18.6626V24.529C18.5745 24.5576 18.4864 24.5576 18.3982 24.5576ZM25.0376 25.2715C24.7438 25.6142 24.3619 25.7855 23.9506 25.7855H19.2502V22.9299H21.3948L20.2197 18.3037L19.6615 18.4465L20.6309 22.3587H18.3689V14.3629H8.6742V22.3587H6.41212L7.41096 18.4465L6.85278 18.3037L5.67767 22.9299H7.79287V25.7855H3.09243C2.65177 25.7855 2.24048 25.5856 1.9467 25.2429C1.6823 24.9288 1.56479 24.529 1.62355 24.1292C1.74106 23.758 3.67999 17.4184 4.41443 15.3624C5.29576 12.8779 6.50025 11.907 8.64483 11.907H10.6719C11.5532 12.2783 12.4933 12.4781 13.4628 12.4781C14.4322 12.4781 15.3723 12.2783 16.2537 11.907H18.3689C20.4547 11.907 22.2173 13.3348 22.5992 15.3338L25.3901 24.0721C25.4783 24.4719 25.3314 24.9288 25.0376 25.2715Z" fill="#313840" stroke="#313840" stroke-width="0.75"/>
</svg>
