<svg width="16" height="12" viewBox="0 0 16 12" fill="none" xmlns="http://www.w3.org/2000/svg">
<path fill-rule="evenodd" clip-rule="evenodd" d="M10.5 6.09834L16 1.05003V11.0833L10.5 6.09834ZM0.32496 0.350035C0.429406 0.23941 0.553912 0.151503 0.691246 0.0914198C0.82858 0.0313365 0.976005 0.000274169 1.12496 3.66912e-05H14.875C15.0204 -0.00117555 15.1645 0.027662 15.2991 0.0848793C15.4337 0.142097 15.556 0.226557 15.659 0.333368C15.6605 0.335368 8 7.21316 8 7.21316L0.32496 0.350035ZM0 11.082V1.05003L5.5 6.1L0 11.082ZM7.9776 8.39349L10 6.55733C10 6.55733 15.6264 11.6655 15.6251 11.6666C15.5224 11.7733 15.4004 11.8577 15.2661 11.9149C15.1319 11.9721 14.9881 12.001 14.843 12H1.11216C0.963347 11.9997 0.816064 11.9687 0.678885 11.9086C0.541706 11.8485 0.417372 11.7606 0.31312 11.65L6 6.55733L7.9776 8.39349Z" fill="#313840"/>
</svg>
