<svg width="32" height="29" viewBox="0 0 32 29" fill="none" xmlns="http://www.w3.org/2000/svg">
<path d="M29.6653 2.84879C28.0869 1.0117 25.8974 0 23.5 0C20.1283 0 17.9936 2.06571 16.7966 3.79868C16.486 4.24837 16.2218 4.69927 16 5.12357C15.7782 4.69927 15.5141 4.24837 15.2034 3.79868C14.0064 2.06571 11.8717 0 8.5 0C6.10262 0 3.91306 1.01176 2.33469 2.84885C0.829188 4.60131 0 6.94835 0 9.45759C0 12.189 1.03956 14.7295 3.27156 17.4525C5.26638 19.8862 8.13619 22.3948 11.4594 25.2997C12.6977 26.3821 13.9782 27.5016 15.3416 28.7251L15.3825 28.7619C15.5592 28.9207 15.7796 29 16 29C16.2204 29 16.4408 28.9206 16.6175 28.7619L16.6584 28.7251C18.0217 27.5016 19.3023 26.3822 20.5408 25.2995C23.8638 22.3948 26.7336 19.8862 28.7284 17.4525C30.9604 14.7294 32 12.189 32 9.45759C32 6.94835 31.1708 4.60131 29.6653 2.84879ZM19.3246 23.8357C18.2571 24.7688 17.1584 25.7292 16 26.7622C14.8416 25.7293 13.7429 24.7689 12.6753 23.8356C6.17156 18.1505 1.875 14.3947 1.875 9.45759C1.875 7.41689 2.53781 5.52146 3.74137 4.12053C4.95875 2.7037 6.64869 1.92338 8.5 1.92338C11.0706 1.92338 12.7323 3.54787 13.6735 4.91065C14.5178 6.1329 14.9584 7.36502 15.1086 7.83798C15.2343 8.23388 15.5941 8.5018 16 8.5018C16.4059 8.5018 16.7657 8.23388 16.8914 7.83798C17.0416 7.36502 17.4822 6.1329 18.3265 4.91059C19.2677 3.54787 20.9294 1.92338 23.5 1.92338C25.3513 1.92338 27.0413 2.7037 28.2586 4.12053C29.4622 5.52146 30.125 7.41689 30.125 9.45759C30.125 14.3947 25.8284 18.1505 19.3246 23.8357Z" fill="black"/>
</svg>
