<svg width="19" height="11" viewBox="0 0 19 11" fill="none" xmlns="http://www.w3.org/2000/svg">
<g opacity="0.36">
<path d="M18.0573 8.77404V8.5634H18.0024L17.9389 8.70808L17.8757 8.5634H17.8204V8.77404H17.8595V8.61519L17.9188 8.75228H17.9593L18.0186 8.61485V8.77404H18.0573ZM17.7089 8.77404V8.59931H17.7793V8.56374H17.5998V8.59931H17.6702V8.77404H17.7089Z" fill="white"/>
<path d="M11.8471 9.67531H7.12236V1.18409H11.8471V9.67531Z" fill="white"/>
<path d="M7.42506 5.42928C7.42506 3.7068 8.23154 2.17246 9.48744 1.18367C8.56903 0.460618 7.40995 0.0290527 6.15028 0.0290527C3.16812 0.0290527 0.750732 2.44678 0.750732 5.42928C0.750732 8.41179 3.16812 10.8295 6.15028 10.8295C7.40995 10.8295 8.56903 10.3979 9.48744 9.6749C8.23154 8.68611 7.42506 7.15177 7.42506 5.42928Z" fill="white"/>
<path d="M18.219 5.42928C18.219 8.41179 15.8017 10.8295 12.8195 10.8295C11.5598 10.8295 10.4007 10.3979 9.48199 9.6749C10.7382 8.68611 11.5447 7.15177 11.5447 5.42928C11.5447 3.7068 10.7382 2.17246 9.48199 1.18367C10.4007 0.460618 11.5598 0.0290527 12.8195 0.0290527C15.8017 0.0290527 18.219 2.44678 18.219 5.42928Z" fill="white"/>
</g>
<g opacity="0.36">
<path d="M18.0576 8.77428V8.56364H18.0027L17.9391 8.70833L17.8759 8.56364H17.8207V8.77428H17.8597V8.61544L17.9191 8.75253H17.9595L18.0189 8.61509V8.77428H18.0576ZM17.7091 8.77428V8.59955H17.7796V8.56398H17.6V8.59955H17.6705V8.77428H17.7091Z" fill="white"/>
<path d="M18.2193 5.42953C18.2193 8.41203 15.8019 10.8298 12.8197 10.8298C11.56 10.8298 10.401 10.3982 9.48222 9.67514C10.7385 8.68635 11.5449 7.15201 11.5449 5.42953C11.5449 3.70704 10.7385 2.1727 9.48222 1.18391C10.401 0.460862 11.56 0.0292969 12.8197 0.0292969C15.8019 0.0292969 18.2193 2.44702 18.2193 5.42953Z" fill="white"/>
</g>
</svg>
