<svg width="29" height="9" viewBox="0 0 29 9" fill="none" xmlns="http://www.w3.org/2000/svg">
<g opacity="0.36">
<path fill-rule="evenodd" clip-rule="evenodd" d="M8.33247 0.439055V0.442541C8.32904 0.442541 7.25027 0.439055 6.9626 1.48834C6.6989 2.45048 5.95575 5.10681 5.9352 5.18002H5.72972C5.72972 5.18002 4.96945 2.46442 4.70232 1.48486C4.41465 0.435569 3.33246 0.439055 3.33246 0.439055H0.866699V8.422H3.33246V3.68104H3.53794L4.9763 8.422H6.68863L8.12699 3.68452H8.33247V8.422H10.7982V0.439055H8.33247Z" fill="#EBEBEB"/>
<path fill-rule="evenodd" clip-rule="evenodd" d="M17.3392 0.438477C17.3392 0.438477 16.6166 0.504711 16.2776 1.27512L14.531 5.17944H14.3255V0.438477H11.8597V8.42143H14.1885C14.1885 8.42143 14.9454 8.35171 15.2844 7.58478L16.9967 3.68046H17.2022V8.42143H19.668V0.438477H17.3392Z" fill="#EBEBEB"/>
<path fill-rule="evenodd" clip-rule="evenodd" d="M20.7639 4.06374V8.42124H23.2297V5.87646H25.9009C27.0653 5.87646 28.0516 5.12 28.4181 4.06374H20.7639Z" fill="#EBEBEB"/>
<path fill-rule="evenodd" clip-rule="evenodd" d="M25.9005 0.438477H20.4176C20.6916 1.95837 21.8115 3.17848 23.2601 3.57588C23.5889 3.66652 23.9348 3.71532 24.2909 3.71532H28.517C28.5546 3.53405 28.5717 3.34929 28.5717 3.15756C28.5717 1.65509 27.3765 0.438477 25.9005 0.438477Z" fill="#EBEBEB"/>
</g>
</svg>
