<svg width="20" height="20" viewBox="0 0 20 20" fill="none" xmlns="http://www.w3.org/2000/svg">
<path fill-rule="evenodd" clip-rule="evenodd" d="M0.865387 4.61324C0.865387 4.61324 0.82506 3.55572 1.49625 2.18732C1.96973 1.21955 3.8129 0.684949 3.8129 0.684949C3.8129 0.684949 4.60116 0.484628 6.18549 2.01432C6.81524 2.59725 7.21572 3.3862 7.31456 4.23862C7.37179 5.01648 5.71331 6.67494 5.71331 6.67494C5.84167 7.62717 6.23925 8.52297 6.85929 9.25697C7.51097 10.0153 8.63352 11.1977 9.22276 11.7505C9.72746 12.224 10.2907 12.8419 11.0399 13.3388C12.5137 14.3156 12.8675 14.2272 12.8675 14.2272C12.8675 14.2272 14.9669 12.4685 15.5952 12.5297C16.0726 12.5778 16.749 12.8926 17.614 13.6301C18.2565 14.1764 18.6676 14.5901 18.9902 15.1416C19.105 15.332 19.1955 15.5361 19.2594 15.7491C19.2594 15.7491 19.344 16.6219 17.9886 18.0111C16.6397 19.3912 14.7796 19.0296 14.7796 19.0296C14.7796 19.0296 13.7104 18.8709 11.9608 18.0475C10.0238 17.1029 8.2589 15.8402 6.7396 14.3117C5.32177 12.8471 3.46299 10.6058 2.55896 9.04623C1.4208 7.08598 0.865387 4.61324 0.865387 4.61324Z" fill="#313840"/>
</svg>
