<svg width="13" height="14" viewBox="0 0 13 14" fill="none" xmlns="http://www.w3.org/2000/svg">
<path fill-rule="evenodd" clip-rule="evenodd" d="M0.00343503 3.43624C0.00343503 3.43624 -0.0247597 2.69687 0.444512 1.74013C0.775549 1.06351 2.06422 0.689733 2.06422 0.689733C2.06422 0.689733 2.61534 0.549677 3.72304 1.61918C4.16334 2.02674 4.44334 2.57835 4.51245 3.17432C4.55246 3.71817 3.39292 4.87771 3.39292 4.87771C3.48266 5.54347 3.76063 6.16977 4.19414 6.68296C4.64977 7.21317 5.43461 8.03984 5.84659 8.42635C6.19945 8.75739 6.59323 9.18938 7.11707 9.53679C8.14747 10.2198 8.39485 10.1579 8.39485 10.1579C8.39485 10.1579 9.86269 8.92837 10.3019 8.97111C10.6357 9.00476 11.1086 9.22484 11.7134 9.74049C12.1627 10.1225 12.4501 10.4117 12.6756 10.7973C12.7559 10.9304 12.8191 11.0731 12.8639 11.222C12.8639 11.222 12.923 11.8322 11.9753 12.8035C11.0322 13.7684 9.73172 13.5156 9.73172 13.5156C9.73172 13.5156 8.98415 13.4047 7.76095 12.829C6.40664 12.1686 5.1727 11.2857 4.11046 10.2171C3.11917 9.19303 1.81958 7.62604 1.18752 6.53562C0.391757 5.16509 0.00343503 3.43624 0.00343503 3.43624Z" fill="#313840"/>
</svg>
