<svg width="25" height="25" viewBox="0 0 25 25" fill="none" xmlns="http://www.w3.org/2000/svg">
<path fill-rule="evenodd" clip-rule="evenodd" d="M24.3148 24.3147C24.0976 24.532 23.8397 24.7043 23.5558 24.8219C23.272 24.9395 22.9677 25 22.6605 25C22.3533 25 22.049 24.9395 21.7652 24.8219C21.4813 24.7043 21.2234 24.532 21.0062 24.3147L16.8816 20.1898C15.1163 21.3251 13.061 21.9272 10.9621 21.9239C4.90779 21.9239 0 17.0161 0 10.962C0 4.90783 4.90779 0 10.9621 0C17.0164 0 21.9242 4.90783 21.9242 10.962C21.9275 13.0608 21.3253 15.1161 20.1898 16.8813L24.3148 21.0062C24.7535 21.4449 25 22.04 25 22.6605C25 23.2809 24.7535 23.876 24.3148 24.3147V24.3147ZM10.9621 3.12501C9.41206 3.12501 7.89685 3.58464 6.60806 4.44577C5.31927 5.30691 4.31477 6.53087 3.7216 7.96288C3.12844 9.3949 2.97324 10.9706 3.27563 12.4909C3.57803 14.0111 4.32443 15.4075 5.42046 16.5035C6.51648 17.5995 7.91291 18.3459 9.43315 18.6483C10.9534 18.9507 12.5291 18.7955 13.9612 18.2023C15.3932 17.6092 16.6172 16.6047 17.4783 15.3159C18.3395 14.0271 18.7991 12.512 18.7991 10.962C18.7991 8.88347 17.9734 6.89011 16.5037 5.4204C15.034 3.95069 13.0406 3.12501 10.9621 3.12501Z" fill="#313840"/>
</svg>
