<svg width="27" height="22" viewBox="0 0 27 22" fill="none" xmlns="http://www.w3.org/2000/svg">
<path fill-rule="evenodd" clip-rule="evenodd" d="M26.295 3.10976C25.3286 3.54008 24.3063 3.8215 23.2607 3.94501C24.3591 3.28871 25.2916 2.25635 25.6881 1.02165C24.616 1.63076 23.4543 2.05402 22.2493 2.27452C21.75 1.74409 21.1524 1.32283 20.4921 1.03583C19.8318 0.748842 19.1223 0.601988 18.4058 0.604025C15.4767 0.604025 13.1464 2.91431 13.1464 5.82431C13.1464 6.24005 13.1322 6.69359 13.1464 7.07718C8.74058 6.85814 4.84455 4.84478 2.22292 1.64808C1.78932 2.40483 1.57846 3.27548 1.61606 4.15382C1.61606 5.98864 2.41307 7.58981 3.84121 8.53886C2.99636 8.52401 2.16601 8.30972 1.41377 7.91242V8.12123C1.41377 10.6796 3.43461 12.6435 5.86407 13.1327C5.4026 13.2642 4.92675 13.3344 4.44807 13.3415C4.11152 13.3708 3.77319 13.3708 3.43664 13.3415C4.1143 15.4397 5.97128 16.8521 8.29151 16.8913C6.4406 18.3774 4.16324 19.1855 1.81835 19.1882C1.38545 19.1882 0.815008 19.0222 0.402344 18.9794C2.74886 20.4735 5.70022 21.4852 8.69608 21.4852C18.4564 21.4852 23.6653 13.4238 23.6653 6.45074C23.6653 6.22105 23.6754 6.05045 23.6653 5.82431C24.6921 5.08919 25.5828 4.16976 26.295 3.10976Z" fill="#F7F7F7"/>
</svg>
