<svg width="21" height="21" viewBox="0 0 21 21" fill="none" xmlns="http://www.w3.org/2000/svg">
<path fill-rule="evenodd" clip-rule="evenodd" d="M5.69345 8.15072C5.65726 7.66997 5.75161 7.18837 5.96666 6.75648C6.03218 6.58442 6.12324 6.42313 6.23682 6.278C6.43955 6.00479 6.71044 5.7891 7.02261 5.65232C7.02261 5.65232 7.95042 5.56158 8.0307 5.68585C8.46066 6.42948 8.82036 7.2113 9.10516 8.02122C9.24719 8.55092 8.50156 9.15553 8.50156 9.15553C8.50156 9.15553 8.02916 9.39546 8.50156 9.98961C8.85354 10.433 9.45252 11.2057 9.81222 11.491C10.1922 11.8008 10.5964 12.0798 11.021 12.3254C11.8994 12.8107 12.063 12.759 12.063 12.759C12.063 12.759 12.2251 12.825 12.6666 12.2253C12.9028 11.9069 13.1607 11.5332 13.4061 11.4578C13.6902 11.3712 15.9842 12.6838 15.8931 12.5921C16.0537 12.7535 15.9271 13.2707 15.9271 13.2707C15.9271 13.2707 15.9765 13.8493 15.1027 14.5165C14.5269 14.9566 13.5744 15.0613 13.5744 15.0613C12.9746 15.0186 12.3852 14.8837 11.8268 14.6614C10.896 14.3118 9.91255 14.0176 8.63585 12.8599C7.74894 12.0575 6.97844 11.1361 6.34646 10.1222C5.67492 8.9685 5.69345 8.15072 5.69345 8.15072ZM10.7014 20.5329C8.92143 20.5354 7.17127 20.0773 5.6224 19.2034L0 21L1.84789 15.5298C0.681745 13.5841 0.194559 11.3086 0.462264 9.05818C0.72997 6.80774 1.73751 4.70878 3.32785 3.08853C4.91819 1.46829 7.00194 0.417826 9.25422 0.100903C11.5065 -0.216019 13.8008 0.218413 15.7793 1.33647C17.7578 2.45453 19.3094 4.19339 20.1922 6.28194C21.075 8.37049 21.2394 10.6914 20.6598 12.8827C20.0801 15.0741 18.789 17.0128 16.9877 18.3966C15.1863 19.7804 12.9761 20.5316 10.7014 20.5329ZM10.6844 1.74846C9.10249 1.7426 7.54959 2.17146 6.19642 2.98787C4.84325 3.80429 3.74223 4.97665 3.01446 6.37605C2.28669 7.77544 1.96033 9.34768 2.07128 10.9199C2.18222 12.4921 2.72618 14.0034 3.64332 15.2876L2.82356 17.7638L2.82665 17.7661L2.58736 18.4645L3.9783 18.0531C3.97608 18.0505 3.97347 18.0482 3.97057 18.0463L5.87869 17.448C6.99588 18.1999 8.27456 18.6802 9.61194 18.8501C10.9493 19.0201 12.3081 18.8751 13.5789 18.4267C14.8498 17.9784 15.9974 17.2391 16.9293 16.2685C17.8613 15.2979 18.5517 14.123 18.945 12.8382C19.3383 11.5534 19.4235 10.1946 19.1938 8.87106C18.9641 7.54749 18.4258 6.29608 17.6224 5.21745C16.8189 4.13881 15.7727 3.26305 14.5677 2.66056C13.3627 2.05806 12.0326 1.74566 10.6844 1.74846Z" fill="#313840"/>
</svg>
