<svg width="21" height="19" viewBox="0 0 21 19" fill="none" xmlns="http://www.w3.org/2000/svg">
<path d="M18.7254 6.37627V2.79096C18.7254 0.729943 16.9841 0 15.3468 0H5.62706C3.98977 0 2.24853 0.729943 2.24853 2.79096V6.37627C1.05305 6.6339 0.169434 7.51412 0.169434 8.58757V14.3412C0.169434 16.0373 1.54683 16.7028 2.89825 16.7672V18.2271C2.89825 18.6565 3.31407 19 3.83384 19H4.79542C5.3152 19 5.73102 18.6565 5.73102 18.2271V16.7672H15.2689V18.2271C15.2689 18.6565 15.6847 19 16.2045 19H17.166C17.6858 19 18.1016 18.6565 18.1016 18.2271V16.7672C20.1028 16.6814 20.8305 15.4791 20.8305 14.3412V8.5661C20.7785 7.51412 19.8949 6.61243 18.7254 6.37627ZM3.18412 2.79096C3.18412 1.03051 4.71746 0.751412 5.62706 0.751412H15.3468C16.2564 0.751412 17.7898 1.00904 17.7898 2.76949V6.2904C16.3864 6.39774 15.2689 7.36384 15.2689 8.5661V9.10283H5.70503V8.5661C5.70503 7.36384 4.58751 6.39774 3.18412 6.2904V2.79096ZM15.2429 9.87571V12.5379H5.70503V9.87571H15.2429ZM4.79542 18.2271H3.83384V16.7672H4.79542V18.2271ZM17.1401 18.2271H16.1785V16.7672H17.1401V18.2271ZM19.8949 14.3412H19.8689C19.8689 15.0927 19.531 16.0158 17.8418 16.0158H17.1401H16.1785H4.79542H3.83384H3.13215C2.22254 16.0158 1.10503 15.7367 1.10503 14.3412V8.5661C1.10503 7.72881 1.93667 7.04181 2.95022 7.04181C3.96378 7.04181 4.79542 7.72881 4.79542 8.5661V12.9243C4.79542 13.139 5.00333 13.3107 5.26322 13.3107H15.7367C15.9966 13.3107 16.2045 13.139 16.2045 12.9243V8.5661C16.2045 7.72881 17.0361 7.04181 18.0497 7.04181C19.0632 7.04181 19.8949 7.72881 19.8949 8.5661V14.3412Z" fill="#313840"/>
</svg>
