<svg width="15" height="13" viewBox="0 0 15 13" fill="none" xmlns="http://www.w3.org/2000/svg">
<path d="M13.3358 4.36271V1.9096C13.3358 0.499435 12.1003 0 10.9385 0H4.04189C2.88015 0 1.64465 0.499435 1.64465 1.9096V4.36271C0.796402 4.53898 0.169434 5.14124 0.169434 5.87571V9.81243C0.169434 10.9729 1.14677 11.4282 2.10566 11.4723V12.4712C2.10566 12.765 2.4007 13 2.76951 13H3.4518C3.8206 13 4.11565 12.765 4.11565 12.4712V11.4723H10.8832V12.4712C10.8832 12.765 11.1783 13 11.5471 13H12.2294C12.5982 13 12.8932 12.765 12.8932 12.4712V11.4723C14.3131 11.4136 14.8294 10.591 14.8294 9.81243V5.86102C14.7926 5.14124 14.1656 4.52429 13.3358 4.36271ZM2.3085 1.9096C2.3085 0.705085 3.39648 0.514124 4.04189 0.514124H10.9385C11.5839 0.514124 12.6719 0.690395 12.6719 1.89492V4.30395C11.6762 4.3774 10.8832 5.03842 10.8832 5.86102V6.22825H4.09721V5.86102C4.09721 5.03842 3.30428 4.3774 2.3085 4.30395V1.9096ZM10.8648 6.75706V8.57853H4.09721V6.75706H10.8648ZM3.4518 12.4712H2.76951V11.4723H3.4518V12.4712ZM12.2109 12.4712H11.5286V11.4723H12.2109V12.4712ZM14.1656 9.81243H14.1471C14.1471 10.3266 13.9074 10.9582 12.7088 10.9582H12.2109H11.5286H3.4518H2.76951H2.27162C1.62621 10.9582 0.833283 10.7672 0.833283 9.81243V5.86102C0.833283 5.28814 1.42337 4.81808 2.14254 4.81808C2.86171 4.81808 3.4518 5.28814 3.4518 5.86102V8.84294C3.4518 8.98983 3.59932 9.10734 3.78372 9.10734H11.2151C11.3995 9.10734 11.5471 8.98983 11.5471 8.84294V5.86102C11.5471 5.28814 12.1372 4.81808 12.8563 4.81808C13.5755 4.81808 14.1656 5.28814 14.1656 5.86102V9.81243V9.81243Z" fill="#313840"/>
</svg>
