<svg width="32" height="34" viewBox="0 0 32 34" fill="none" xmlns="http://www.w3.org/2000/svg">
<path d="M28.1593 11.4102V4.99435C28.1593 1.30621 25.5853 0 23.1649 0H8.79656C6.37622 0 3.80221 1.30621 3.80221 4.99435V11.4102C2.03497 11.8712 0.72876 13.4463 0.72876 15.3672V25.6633C0.72876 28.6983 2.76492 29.8893 4.76266 30.0045V32.617C4.76266 33.3853 5.37735 34 6.14571 34H7.56718C8.33554 34 8.95023 33.3853 8.95023 32.617V30.0045H23.0497V32.617C23.0497 33.3853 23.6644 34 24.4327 34H25.8542C26.6225 34 27.2372 33.3853 27.2372 32.617V30.0045C30.1954 29.8508 31.2711 27.6994 31.2711 25.6633V15.3288C31.1943 13.4463 29.8881 11.8328 28.1593 11.4102ZM5.18526 4.99435C5.18526 1.84407 7.45192 1.34463 8.79656 1.34463H23.1649C24.5096 1.34463 26.7762 1.80565 26.7762 4.95593V11.2565C24.7016 11.4486 23.0497 13.1774 23.0497 15.3288V16.2893H8.91181V15.3288C8.91181 13.1774 7.25983 11.4486 5.18526 11.2565V4.99435ZM23.0112 17.6723V22.4362H8.91181V17.6723H23.0112ZM7.56718 32.617H6.14571V30.0045H7.56718V32.617ZM25.8158 32.617H24.3943V30.0045H25.8158V32.617ZM29.8881 25.6633H29.8497C29.8497 27.0079 29.3502 28.6599 26.8531 28.6599H25.8158H24.3943H7.56718H6.14571H5.10842C3.76379 28.6599 2.11181 28.1605 2.11181 25.6633V15.3288C2.11181 13.8305 3.34119 12.6011 4.83949 12.6011C6.3378 12.6011 7.56718 13.8305 7.56718 15.3288V23.1277C7.56718 23.5119 7.87452 23.8192 8.2587 23.8192H23.7412C24.1254 23.8192 24.4327 23.5119 24.4327 23.1277V15.3288C24.4327 13.8305 25.6621 12.6011 27.1604 12.6011C28.6587 12.6011 29.8881 13.8305 29.8881 15.3288V25.6633Z" fill="black"/>
</svg>
