<svg width="25" height="32" viewBox="0 0 25 32" fill="none" xmlns="http://www.w3.org/2000/svg">
<path d="M24.8484 25.9944C24.774 24.9784 24.6687 23.9646 24.5844 22.9493C24.4759 21.6439 24.3679 20.3383 24.2511 19.0338C24.1372 17.7603 24.027 16.4864 23.9204 15.2121C23.8124 13.9174 23.6918 12.6236 23.5896 11.3281C23.4826 9.97078 23.3404 8.61626 23.2465 7.2576C23.1961 6.52726 22.8361 6.15773 22.1271 6.15492C21.1283 6.15122 20.1295 6.15492 19.1307 6.15314C18.7401 6.15225 18.7424 6.14871 18.6911 5.74102C18.3639 3.14191 17.0298 1.33307 14.6889 0.314526C14.1783 0.0927163 13.6362 0.0631417 13.0981 0H11.8265C11.7938 0.0243997 11.7536 0.0357466 11.7134 0.0319406C10.9221 0.0491316 10.1498 0.285719 9.47765 0.716888C7.60503 1.84072 6.5469 3.52159 6.29394 5.74205C6.2475 6.14915 6.24578 6.15211 5.85352 6.15314C4.83451 6.15595 3.81551 6.14885 2.7965 6.15625C2.17693 6.16068 1.80502 6.5002 1.75385 7.13221C1.70785 7.70196 1.66858 8.2726 1.61541 8.84177C1.51694 9.89758 1.43009 10.9544 1.34052 12.011C1.25539 13.0165 1.15951 14.0198 1.07738 15.0248C0.990244 16.0921 0.903536 17.1595 0.807082 18.2256C0.671215 19.727 0.540507 21.2289 0.414959 22.7312C0.285971 24.2543 0.162429 25.7774 0.0218322 27.2993C-0.118478 28.8167 0.446919 30.0008 1.54102 30.9482C2.24945 31.5774 3.13971 31.9471 4.07305 31.9997H20.8517C21.318 31.936 21.7871 31.9039 22.2291 31.7C23.733 31.0064 24.7383 29.8974 24.9702 28.1691C25.0681 27.4443 24.9014 26.7187 24.8484 25.9944ZM8.08587 5.92142C8.18535 4.81745 8.66918 3.78806 9.44776 3.02387C10.2263 2.25968 11.2469 1.81246 12.3205 1.76501C14.628 1.62291 16.7829 3.62008 16.9058 6.00335C16.9174 6.22915 16.8198 6.23063 16.6607 6.23018C15.2682 6.22663 13.8757 6.22594 12.4831 6.22811C11.1108 6.22811 9.73835 6.2219 8.3662 6.23388C8.12241 6.2361 8.05892 6.17044 8.08587 5.92142ZM21.6269 29.9404C21.1514 30.1452 20.6402 30.2465 20.125 30.2381C17.5708 30.2381 15.0166 30.2381 12.4624 30.2381C9.9185 30.2381 7.37448 30.2381 4.83036 30.2381C4.06532 30.2381 3.34943 30.0552 2.73674 29.561C2.08435 29.0349 1.74009 28.3697 1.81949 27.4797C2.11287 24.2046 2.38862 20.9277 2.66823 17.6513C2.89927 14.945 3.12819 12.2386 3.35502 9.53204C3.392 9.0967 3.43901 8.66195 3.46524 8.22602C3.47527 8.05834 3.51726 7.99283 3.69297 7.99475C4.50989 8.00407 5.32854 8.00688 6.14603 7.99372C6.35227 7.99046 6.36904 8.07712 6.36775 8.25013C6.36202 9.07289 6.3603 9.89595 6.3719 10.7186C6.3698 10.8975 6.42496 11.0722 6.52883 11.2155C6.63271 11.3588 6.77951 11.4628 6.94647 11.5113C7.10946 11.5701 7.28606 11.5756 7.45218 11.527C7.61831 11.4785 7.76587 11.3782 7.87476 11.24C8.01313 11.0586 8.08305 10.8317 8.07154 10.6012C8.06838 9.81995 8.07612 9.03859 8.06666 8.25752C8.06437 8.06529 8.09733 7.99327 8.30715 7.99386C11.0935 8.00185 13.8798 8.00209 16.6661 7.9946C16.8644 7.9946 16.9181 8.04828 16.9151 8.25249C16.9032 9.03356 16.9076 9.81492 16.9111 10.5961C16.9135 11.1662 17.2661 11.5617 17.7625 11.5623C18.2613 11.5623 18.6107 11.1733 18.6143 10.5976C18.6192 9.8164 18.6225 9.03504 18.6111 8.25397C18.6081 8.05198 18.658 7.99105 18.8589 7.99416C19.6563 8.00609 20.4537 8.00574 21.2514 7.99312C21.4566 7.98957 21.5002 8.06706 21.5162 8.25575C21.7719 11.273 22.0313 14.2901 22.2945 17.3069C22.545 20.2308 22.7934 23.1548 23.0397 26.0789C23.0776 26.5247 23.0942 26.9742 23.1618 27.4153C23.342 28.5881 22.5385 29.5348 21.6269 29.9404Z" fill="black"/>
</svg>
