<svg width="21" height="15" viewBox="0 0 21 15" fill="none" xmlns="http://www.w3.org/2000/svg">
<path fill-rule="evenodd" clip-rule="evenodd" d="M17.4526 11.5224C15.7392 13.0786 14.1224 13.811 13.5257 14.0477C11.779 14.7913 9.81129 14.825 8.04007 14.1418L8.01353 14.1381C8.01353 14.1381 5.95854 13.4325 3.69202 11.3708C1.95621 9.79192 0.962646 7.91669 0.962646 7.37149C0.962646 6.90523 1.5324 5.45419 3.50248 3.52384C5.96385 1.11221 8.01353 0.567022 8.01353 0.567022L8.04158 0.562624C8.9441 0.214739 9.90677 0.0497191 10.8736 0.0771558C11.8405 0.104592 12.7922 0.323939 13.6736 0.722444C14.343 1.00941 15.7839 1.71703 17.301 3.03104C19.5258 4.95835 20.3715 6.78487 20.3715 7.37149C20.3715 7.93981 19.4417 9.71591 17.4526 11.5224ZM10.6671 2.50033C9.70741 2.50033 8.76928 2.7849 7.97134 3.31807C7.17339 3.85124 6.55147 4.60905 6.18422 5.49568C5.81697 6.3823 5.72088 7.35792 5.9081 8.29916C6.09533 9.2404 6.55746 10.105 7.23605 10.7836C7.91465 11.4622 8.77923 11.9243 9.72047 12.1115C10.6617 12.2987 11.6373 12.2027 12.524 11.8354C13.4106 11.4682 14.1684 10.8462 14.7016 10.0483C15.2347 9.25034 15.5193 8.31222 15.5193 7.35254C15.5193 6.06565 15.0081 4.83147 14.0981 3.92151C13.1882 3.01154 11.954 2.50033 10.6671 2.50033ZM10.6671 9.77865C10.0236 9.77865 9.40655 9.52304 8.95157 9.06806C8.49659 8.61307 8.24098 7.99598 8.24098 7.35254V7.35061C8.26638 7.35144 8.2914 7.35254 8.3168 7.35254C8.94013 7.35254 9.53794 7.10492 9.9787 6.66416C10.4195 6.22339 10.6671 5.62559 10.6671 5.00225C10.6671 4.97685 10.666 4.95168 10.6652 4.92643H10.6671C11.3105 4.92643 11.9276 5.18204 12.3826 5.63702C12.8376 6.09201 13.0932 6.7091 13.0932 7.35254C13.0932 7.99598 12.8376 8.61307 12.3826 9.06806C11.9276 9.52304 11.3105 9.77865 10.6671 9.77865Z" fill="white"/>
</svg>
