<svg width="22" height="22" viewBox="0 0 22 22" fill="none" xmlns="http://www.w3.org/2000/svg">
<path d="M1 5.32857H20.9124M20.0467 20.9119H1.86625C1.38811 20.9119 1.0005 20.5243 1.0005 20.0462V1.86575C1.0005 1.38761 1.38811 1 1.86625 1H20.0467C20.5248 1 20.9124 1.38761 20.9124 1.86575V20.0462C20.9124 20.5243 20.5248 20.9119 20.0467 20.9119ZM3.59737 3.16419C3.59737 3.40326 3.40356 3.59706 3.16449 3.59706C2.92542 3.59706 2.73162 3.40326 2.73162 3.16419C2.73162 2.92511 2.92542 2.73131 3.16449 2.73131C3.40356 2.73131 3.59737 2.92511 3.59737 3.16419ZM7.06038 3.16419C7.06038 3.40326 6.86657 3.59706 6.6275 3.59706C6.38843 3.59706 6.19462 3.40326 6.19462 3.16419C6.19462 2.92511 6.38843 2.73131 6.6275 2.73131C6.86657 2.73131 7.06038 2.92511 7.06038 3.16419ZM10.5234 3.16419C10.5234 3.40326 10.3296 3.59706 10.0905 3.59706C9.85144 3.59706 9.65763 3.40326 9.65763 3.16419C9.65763 2.92511 9.85144 2.73131 10.0905 2.73131C10.3296 2.73131 10.5234 2.92511 10.5234 3.16419ZM3.16452 7.05999H6.62753V9.65724H3.16452V7.05999ZM9.2247 7.05999H12.6877V9.65724H9.2247V7.05999ZM15.2849 7.05999H18.7479V9.65724H15.2849V7.05999ZM3.16452 11.3887H6.62753V13.986H3.16452V11.3887ZM9.2247 11.3887H12.6877V13.986H9.2247V11.3887ZM15.2849 11.3887H18.7479V13.986H15.2849V11.3887ZM3.16452 15.7175H6.62753V18.3148H3.16452V15.7175ZM9.2247 15.7175H12.6877V18.3148H9.2247V15.7175ZM15.2849 15.7175H18.7479V18.3148H15.2849V15.7175Z" stroke="#313840" stroke-width="0.8" stroke-miterlimit="10" stroke-linecap="round" stroke-linejoin="round"/>
</svg>
