<svg width="14" height="14" viewBox="0 0 14 14" fill="none" xmlns="http://www.w3.org/2000/svg">
<path d="M10.7223 13.91C9.92363 13.91 9.27333 13.2597 9.27333 12.461C9.27333 11.6624 9.92363 11.0121 10.7223 11.0121C11.521 11.0121 12.1712 11.6624 12.1712 12.461C12.1712 13.2597 11.521 13.91 10.7223 13.91ZM10.7223 11.5917C10.243 11.5917 9.85292 11.9817 9.85292 12.461C9.85292 12.9404 10.243 13.3304 10.7223 13.3304C11.2016 13.3304 11.5917 12.9404 11.5917 12.461C11.5917 11.9817 11.2016 11.5917 10.7223 11.5917Z" fill="#313840"/>
<path d="M4.92646 13.91C4.12779 13.91 3.4775 13.2597 3.4775 12.461C3.4775 11.6624 4.12779 11.0121 4.92646 11.0121C5.72512 11.0121 6.37542 11.6624 6.37542 12.461C6.37542 13.2597 5.72512 13.91 4.92646 13.91ZM4.92646 11.5917C4.44714 11.5917 4.05708 11.9817 4.05708 12.461C4.05708 12.9404 4.44714 13.3304 4.92646 13.3304C5.40577 13.3304 5.79583 12.9404 5.79583 12.461C5.79583 11.9817 5.40577 11.5917 4.92646 11.5917Z" fill="#313840"/>
<path d="M11.8815 10.4325H5.19249C4.22922 10.4325 3.3923 9.74685 3.20336 8.80213L1.79091 1.73875H0.289792C0.129827 1.73875 0 1.60892 0 1.44896C0 1.28899 0.129827 1.15917 0.289792 1.15917H2.02854C2.16648 1.15917 2.2853 1.25654 2.31254 1.39216L3.77193 8.68795C3.90697 9.36317 4.50452 9.85292 5.19249 9.85292H11.8815C12.0414 9.85292 12.1712 9.98274 12.1712 10.1427C12.1712 10.3027 12.0414 10.4325 11.8815 10.4325Z" fill="#313840"/>
<path d="M3.76729 9.27333C3.62413 9.27333 3.5001 9.16727 3.4804 9.02179C3.45895 8.86357 3.57081 8.71751 3.72962 8.69607L12.228 7.56298L12.4703 6.59508C12.5091 6.43917 12.6651 6.3447 12.8215 6.38411C12.9769 6.42294 13.0713 6.58001 13.0325 6.73534L12.7427 7.8945C12.7143 8.00984 12.6175 8.0962 12.4999 8.11185L3.80612 9.27101C3.79221 9.27275 3.77946 9.27333 3.76729 9.27333Z" fill="#313840"/>
<path d="M6.66521 3.4775H2.60812C2.44816 3.4775 2.31833 3.34767 2.31833 3.18771C2.31833 3.02774 2.44816 2.89792 2.60812 2.89792H6.66521C6.82517 2.89792 6.955 3.02774 6.955 3.18771C6.955 3.34767 6.82517 3.4775 6.66521 3.4775Z" fill="#313840"/>
<path d="M10.7223 6.37542C8.96442 6.37542 7.53458 4.94558 7.53458 3.18771C7.53458 1.42983 8.96442 0 10.7223 0C12.4802 0 13.91 1.42983 13.91 3.18771C13.91 4.94558 12.4802 6.37542 10.7223 6.37542ZM10.7223 0.579583C9.28435 0.579583 8.11417 1.74976 8.11417 3.18771C8.11417 4.62565 9.28435 5.79583 10.7223 5.79583C12.1602 5.79583 13.3304 4.62565 13.3304 3.18771C13.3304 1.74976 12.1602 0.579583 10.7223 0.579583Z" fill="#313840"/>
<path d="M10.1427 4.63667C10.0685 4.63667 9.99433 4.60827 9.93754 4.55205L8.77837 3.39288C8.66535 3.27986 8.66535 3.09613 8.77837 2.98312C8.89139 2.8701 9.07512 2.8701 9.18813 2.98312L10.1427 3.93711L12.2559 1.82395C12.3689 1.71093 12.5526 1.71093 12.6656 1.82395C12.7787 1.93697 12.7787 2.1207 12.6656 2.23371L10.3473 4.55205C10.2911 4.60827 10.2169 4.63667 10.1427 4.63667Z" fill="#313840"/>
</svg>
