<svg width="28" height="27" viewBox="0 0 28 27" fill="none" xmlns="http://www.w3.org/2000/svg">
<path d="M21.4707 3.27222C19.2751 1.78889 16.6924 1 14 1C11.3076 1 8.72489 1.78889 6.52933 3.27222C4.09111 4.92222 2.3 7.34445 1.49111 10.0889C1.16178 11.2 1 12.35 1 13.5C1 14.65 1.16756 15.7944 1.49111 16.9111C2.3 19.6556 4.09111 22.0778 6.52933 23.7278C8.72489 25.2167 11.3076 26 14 26C16.6924 26 19.2751 25.2111 21.4707 23.7278C23.9089 22.0778 25.7 19.6556 26.5089 16.9111C26.8382 15.8 27 14.65 27 13.5C27 12.35 26.8324 11.2056 26.5089 10.0889C25.7 7.34445 23.9089 4.92222 21.4707 3.27222ZM25.8387 9.88889H19.8182C19.4716 7.44444 18.7782 5.32778 17.8538 3.77778H21.2107C23.4004 5.28333 25.0298 7.43889 25.8387 9.88889ZM8.70178 16.5556C8.58044 15.5778 8.51111 14.5556 8.51111 13.5C8.51111 12.4444 8.58044 11.4222 8.70178 10.4444H19.304C19.4253 11.4222 19.4947 12.4444 19.4947 13.5C19.4947 14.5556 19.4253 15.5778 19.304 16.5556H8.70178ZM19.2289 17.1111C18.8649 19.6 18.1311 21.7333 17.172 23.2222H10.8164C9.85733 21.7333 9.12356 19.6 8.75956 17.1111H19.2289ZM8.77111 9.88889C9.13511 7.4 9.86889 5.26667 10.828 3.77778H17.1836C18.1427 5.26667 18.8764 7.4 19.2404 9.88889H8.77111ZM20.3267 3.22222H17.4956C17.0622 2.60556 16.5884 2.1 16.0858 1.72778C17.5764 1.97222 19.0151 2.47222 20.3267 3.22222ZM16.7849 3.22222H11.2209C12.0356 2.17222 12.9889 1.55556 14.0058 1.55556C15.0227 1.55556 15.9644 2.17222 16.7849 3.22222ZM11.92 1.72778C11.4116 2.1 10.9378 2.60556 10.5102 3.22222H7.67911C8.98489 2.47222 10.4236 1.97222 11.92 1.72778ZM6.78933 3.77778H10.1462C9.22178 5.32778 8.52844 7.44444 8.18178 9.88889H2.16133C2.97022 7.43889 4.59956 5.28333 6.78933 3.77778ZM1.57778 13.5C1.57778 12.4722 1.71644 11.4444 1.99378 10.4444H8.11244C7.99689 11.4222 7.93333 12.4444 7.93333 13.5C7.93333 14.5556 7.99689 15.5778 8.11244 16.5556H1.99378C1.71644 15.5556 1.57778 14.5278 1.57778 13.5ZM2.16133 17.1111H8.18178C8.52844 19.5556 9.22178 21.6722 10.1462 23.2222H6.78933C4.59956 21.7167 2.97022 19.5611 2.16133 17.1111ZM7.67333 23.7778H10.5044C10.9378 24.3944 11.4116 24.9 11.9142 25.2722C10.4236 25.0278 8.98489 24.5278 7.67333 23.7778ZM11.2151 23.7778H16.7791C15.9644 24.8278 15.0111 25.4444 13.9942 25.4444C12.9773 25.4444 12.0356 24.8278 11.2151 23.7778ZM16.08 25.2722C16.5884 24.9 17.0622 24.3944 17.4898 23.7778H20.3209C19.0151 24.5278 17.5764 25.0278 16.08 25.2722ZM21.2107 23.2222H17.8538C18.7782 21.6722 19.4716 19.5556 19.8182 17.1111H25.8387C25.0298 19.5611 23.4004 21.7167 21.2107 23.2222ZM26.0062 16.5556H19.8876C20.0031 15.5778 20.0667 14.5556 20.0667 13.5C20.0667 12.4444 20.0031 11.4222 19.8876 10.4444H26.0062C26.2836 11.4444 26.4222 12.4722 26.4222 13.5C26.4222 14.5278 26.2836 15.5556 26.0062 16.5556Z" fill="#752763" stroke="#313840"/>
</svg>
