<svg width="20" height="24" viewBox="0 0 20 24" fill="none" xmlns="http://www.w3.org/2000/svg">
<path d="M14.4328 12.7356C13.7727 12.7356 12.949 12.8464 12.0417 13.0566C11.0914 12.3244 10.127 11.4328 9.2991 10.5208C9.57295 7.79673 9.13367 6.66036 8.71169 6.18691C8.3797 5.81455 7.91765 5.68521 7.40524 5.82661C6.81898 5.98836 6.59771 6.35885 6.5153 6.64115C6.17416 7.81012 7.59096 9.67739 8.54542 10.7649C8.39922 12.0168 8.12193 13.3586 7.75729 14.5785C6.89253 14.9997 6.15145 15.4492 5.60699 15.8832C4.92139 16.4298 4.53151 16.9619 4.44819 17.4652C4.37964 17.8788 4.51578 18.2664 4.84181 18.5858C5.09355 18.8324 5.37145 18.9574 5.66765 18.9575H5.66771C6.92934 18.9575 7.87584 16.6093 8.3538 15.0992C9.46548 14.5821 10.7054 14.1407 11.88 13.8438C12.8886 14.5909 14.2457 15.43 15.2527 15.43C15.9173 15.43 16.3591 15.069 16.4966 14.4137C16.6074 13.8858 16.4419 13.5407 16.2834 13.3441C15.958 12.9404 15.3354 12.7356 14.4328 12.7356ZM5.66765 18.2302C5.56488 18.2302 5.4597 18.1761 5.34602 18.0648C5.1444 17.8673 5.14133 17.7045 5.16114 17.5848C5.25187 17.0371 6.10151 16.2899 7.4344 15.5619C6.77163 17.3978 6.09 18.2302 5.66765 18.2302ZM7.20886 6.84606C7.24006 6.73915 7.31229 6.60636 7.59639 6.528C7.6709 6.50746 7.74072 6.49703 7.80386 6.49703C7.94928 6.49703 8.06669 6.55279 8.17343 6.67255C8.55952 7.10564 8.72313 8.22642 8.6356 9.74479C7.77904 8.67685 7.0303 7.458 7.20886 6.84606ZM11.1443 13.2891C10.3049 13.5284 9.44825 13.832 8.63789 14.1775L8.64464 14.1556L8.62584 14.1645C8.86012 13.2876 9.04976 12.3693 9.1806 11.4773L9.19434 11.4927L9.19657 11.4722C9.80934 12.1082 10.476 12.7235 11.1473 13.2727L11.1286 13.2772L11.1443 13.2891ZM15.7893 14.2636C15.723 14.5796 15.5725 14.7028 15.2527 14.7028C14.7101 14.7028 13.8508 14.3191 12.8367 13.6328C13.4378 13.5211 13.9802 13.463 14.4329 13.463C15.3165 13.463 15.6198 13.6756 15.7219 13.8023C15.7542 13.8422 15.8522 13.9639 15.7893 14.2636Z" fill="#313840"/>
<path d="M15.9328 0H0V24H20V4.09182L15.9328 0ZM16.1446 1.24152L18.766 3.87879H16.1446V1.24152ZM0.722892 23.2727V0.727273H15.4217V4.60606H19.2771V23.2727H0.722892Z" fill="#313840"/>
</svg>
