<svg width="19" height="26" viewBox="0 0 19 26" fill="none" xmlns="http://www.w3.org/2000/svg">
<path fill-rule="evenodd" clip-rule="evenodd" d="M9.5 0C14.7465 0 19 4.25879 19 9.51079C19 14.7628 9.5 26 9.5 26C9.5 26 0 14.7628 0 9.51079C0 4.25879 4.25347 0 9.5 0ZM9.50507 5.38719C10.3468 5.38719 11.1697 5.64337 11.8696 6.12333C12.5695 6.60329 13.115 7.2855 13.4371 8.08364C13.7592 8.88179 13.8435 9.76004 13.6793 10.6073C13.5151 11.4547 13.1097 12.233 12.5145 12.8438C11.9193 13.4547 11.1609 13.8707 10.3354 14.0393C9.50978 14.2078 8.65405 14.1213 7.87637 13.7907C7.09869 13.4601 6.43398 12.9003 5.96632 12.1819C5.49867 11.4636 5.24906 10.6191 5.24906 9.75521C5.24906 8.59674 5.69747 7.48572 6.49563 6.66656C7.29378 5.8474 8.37631 5.38719 9.50507 5.38719Z" fill="#313840"/>
</svg>
