<svg width="26" height="26" viewBox="0 0 26 26" fill="none" xmlns="http://www.w3.org/2000/svg">
<path fill-rule="evenodd" clip-rule="evenodd" d="M7.04903 10.0914C7.00423 9.49615 7.12104 8.89988 7.38729 8.36517C7.46841 8.15214 7.58116 7.95245 7.72178 7.77276C7.97278 7.4345 8.30816 7.16746 8.69466 6.99811C8.69466 6.99811 9.84338 6.88576 9.94277 7.03963C10.4751 7.96031 10.9204 8.92827 11.2731 9.93103C11.4489 10.5869 10.5257 11.3354 10.5257 11.3354C10.5257 11.3354 9.94087 11.6325 10.5257 12.3681C10.9615 12.9171 11.7031 13.8738 12.1485 14.227C12.6189 14.6105 13.1194 14.956 13.6451 15.2601C14.7326 15.8608 14.9352 15.7969 14.9352 15.7969C14.9352 15.7969 15.1359 15.8786 15.6825 15.1361C15.975 14.7419 16.2942 14.2792 16.5981 14.1859C16.9497 14.0787 19.79 15.7037 19.6772 15.5903C19.876 15.79 19.7192 16.4304 19.7192 16.4304C19.7192 16.4304 19.7804 17.1468 18.6986 17.9728C17.9857 18.5177 16.8064 18.6473 16.8064 18.6473C16.0638 18.5944 15.334 18.4274 14.6428 18.1522C13.4902 17.7194 12.2727 17.3551 10.692 15.9218C9.59393 14.9284 8.63998 13.7876 7.85752 12.5322C7.02609 11.1039 7.04903 10.0914 7.04903 10.0914ZM13.2494 25.4217C11.0456 25.4248 8.87871 24.8576 6.96107 23.7757L0 26L2.28786 19.2274C0.844065 16.8184 0.240882 14.0012 0.572327 11.2149C0.903773 8.42863 2.15121 5.82991 4.1202 3.8239C6.08919 1.81789 8.66907 0.517308 11.4576 0.124928C14.2461 -0.267452 17.0867 0.270417 19.5363 1.65468C21.9859 3.03895 23.9069 5.19181 24.9999 7.77764C26.0929 10.3635 26.2964 13.2369 25.5788 15.9501C24.8611 18.6632 23.2626 21.0635 21.0323 22.7768C18.8021 24.4901 16.0656 25.42 13.2494 25.4217ZM13.2283 2.16476C11.2698 2.15751 9.34711 2.68847 7.67175 3.69927C5.9964 4.71007 4.63324 6.16157 3.73219 7.89415C2.83114 9.62674 2.42708 11.5733 2.56444 13.5199C2.70179 15.4664 3.37527 17.3375 4.51077 18.9274L3.49584 21.9933L3.49967 21.9961L3.2034 22.8609L4.92552 22.3515C4.92277 22.3482 4.91954 22.3454 4.91595 22.3431L7.27838 21.6023C8.66157 22.5332 10.2447 23.1278 11.9005 23.3383C13.5563 23.5487 15.2385 23.3692 16.812 22.814C18.3855 22.2589 19.8062 21.3437 20.9601 20.142C22.114 18.9403 22.9688 17.4856 23.4557 15.8949C23.9426 14.3042 24.0481 12.6219 23.7637 10.9832C23.4793 9.34451 22.813 7.79515 21.8182 6.4597C20.8235 5.12425 19.5281 4.03996 18.0362 3.29402C16.5443 2.54808 14.8976 2.16129 13.2283 2.16476Z" fill="#313840"/>
</svg>
