<svg width="28" height="19" viewBox="0 0 28 19" fill="none" xmlns="http://www.w3.org/2000/svg">
<path d="M2.8423 1C1.83899 1 1 1.81471 1 2.82143V16.1786C1 17.1853 1.83899 18 2.8423 18H25.1577C26.161 18 27 17.1853 27 16.1786V2.82143C27 1.81471 26.161 1 25.1577 1H2.8423ZM3.15407 2.21429H24.8459L14.5291 11.4732C14.2718 11.7041 13.7282 11.7041 13.4709 11.4732L3.15407 2.21429ZM2.2093 2.99219L9.75799 9.76562L2.2093 16.0458V2.99219ZM25.7907 2.99219V16.0458L18.242 9.76562L25.7907 2.99219ZM10.6744 10.5909L12.6679 12.3744C13.4239 13.0529 14.5761 13.0529 15.3321 12.3744L17.3256 10.5909L24.7798 16.7857H3.2202L10.6744 10.5909Z" fill="#313840" stroke="#313840" stroke-width="0.5"/>
</svg>
