<svg width="23" height="22" viewBox="0 0 23 22" fill="none" xmlns="http://www.w3.org/2000/svg">
<path fill-rule="evenodd" clip-rule="evenodd" d="M0.378402 4.79403C0.378402 4.79403 0.33086 3.5473 1.12214 1.93406C1.68034 0.793134 3.85329 0.162877 3.85329 0.162877C3.85329 0.162877 4.78259 -0.0732863 6.65039 1.73011C7.39281 2.41733 7.86495 3.34745 7.98147 4.35238C8.04895 5.26942 6.09373 7.22462 6.09373 7.22462C6.24505 8.34722 6.71377 9.4033 7.44475 10.2686C8.21303 11.1627 9.53643 12.5566 10.2311 13.2083C10.8261 13.7665 11.4901 14.4949 12.3734 15.0807C14.1108 16.2324 14.528 16.1281 14.528 16.1281C14.528 16.1281 17.003 14.0548 17.7437 14.1269C18.3065 14.1836 19.1039 14.5547 20.1237 15.4242C20.8812 16.0683 21.3658 16.556 21.7461 17.2062C21.8815 17.4307 21.9881 17.6713 22.0636 17.9223C22.0636 17.9223 22.1632 18.9513 20.5653 20.5891C18.9751 22.2161 16.7822 21.7898 16.7822 21.7898C16.7822 21.7898 15.5216 21.6027 13.4591 20.632C11.1755 19.5184 9.09479 18.0297 7.30364 16.2278C5.63213 14.5011 3.44078 11.8588 2.375 10.0202C1.03319 7.7092 0.378402 4.79403 0.378402 4.79403Z" fill="#313840"/>
</svg>
