<svg width="24" height="25" viewBox="0 0 24 25" fill="none" xmlns="http://www.w3.org/2000/svg">
<path d="M0.363636 15.6046H8.36364C8.58182 15.6046 8.72727 15.7468 8.72727 15.9601V23.7802C8.72727 23.9934 8.58182 24.1356 8.36364 24.1356H0.363636C0.145455 24.1356 0 23.9934 0 23.7802V15.9601C0 15.7468 0.145455 15.6046 0.363636 15.6046ZM3.27273 16.3155V18.9459L4.21818 18.4838C4.32727 18.4483 4.43636 18.4483 4.54545 18.4838L5.49091 18.9459V16.3155H3.27273ZM2.54545 16.3155H0.727273V23.4247H8V16.3155H6.18182V19.5147C6.18182 19.7635 5.89091 19.9412 5.67273 19.8346L4.36364 19.1947L3.05455 19.8346C2.83636 19.9412 2.54545 19.7635 2.54545 19.5147V16.3155ZM19.4909 12.3344C19.3455 12.441 19.1636 12.441 19.0545 12.3344C19.0182 12.2988 18.9455 12.2633 18.8727 12.1922C18.7273 12.05 18.5455 11.9078 18.3636 11.7656C17.8545 11.3035 17.3091 10.7703 16.8364 10.2016C15.3818 8.5665 14.5455 6.89584 14.5455 5.29627C14.5455 2.73696 16.6545 0.675293 19.2727 0.675293C21.8909 0.675293 24 2.73696 24 5.29627C24 6.89584 23.1636 8.5665 21.7455 10.2016C21.2727 10.7703 20.7273 11.3035 20.2182 11.7656C20.0364 11.9434 19.8545 12.0855 19.7091 12.1922C19.6 12.2633 19.5273 12.2988 19.4909 12.3344ZM19.7091 11.1969C20.2182 10.7348 20.7273 10.2372 21.1636 9.70397C22.4727 8.21104 23.2727 6.68256 23.2727 5.29627C23.2727 3.12796 21.4909 1.38621 19.2727 1.38621C17.0545 1.38621 15.2727 3.12796 15.2727 5.29627C15.2727 6.68256 16.0727 8.21104 17.3818 9.73951C17.8545 10.2727 18.3636 10.7703 18.8364 11.2324C18.9818 11.3746 19.1273 11.4813 19.2727 11.6235C19.4182 11.4813 19.5636 11.3391 19.7091 11.1969ZM19.2727 7.42903C18.0727 7.42903 17.0909 6.46929 17.0909 5.29627C17.0909 4.12325 18.0727 3.16351 19.2727 3.16351C20.4727 3.16351 21.4545 4.12325 21.4545 5.29627C21.4545 6.46929 20.4727 7.42903 19.2727 7.42903ZM19.2727 6.71811C20.0727 6.71811 20.7273 6.07828 20.7273 5.29627C20.7273 4.51426 20.0727 3.87443 19.2727 3.87443C18.4727 3.87443 17.8182 4.51426 17.8182 5.29627C17.8182 6.07828 18.4727 6.71811 19.2727 6.71811ZM15.6364 12.05C15.8545 12.05 16 12.1922 16 12.4055C16 12.6187 15.8545 12.7609 15.6364 12.7609H14.1818C12.7636 12.7609 11.6364 13.8628 11.6364 15.2491C11.6364 16.6354 12.7636 17.7374 14.1818 17.7374H20C21.8182 17.7374 23.2727 19.1592 23.2727 20.9365C23.2727 22.7138 21.8182 24.1356 20 24.1356H12C11.7818 24.1356 11.6364 23.9934 11.6364 23.7802C11.6364 23.5669 11.7818 23.4247 12 23.4247H20C21.4182 23.4247 22.5455 22.3228 22.5455 20.9365C22.5455 19.5502 21.4182 18.4483 20 18.4483H14.1818C12.3636 18.4483 10.9091 17.0264 10.9091 15.2491C10.9091 13.4718 12.3636 12.05 14.1818 12.05H15.6364Z" fill="#313840"/>
</svg>
