<svg width="20" height="15" viewBox="0 0 20 15" fill="none" xmlns="http://www.w3.org/2000/svg">
<path fill-rule="evenodd" clip-rule="evenodd" d="M13.125 7.88328L20 1.99359V13.6991L13.125 7.88328ZM0.4062 1.17693C0.536758 1.04787 0.69239 0.945308 0.864057 0.875211C1.03572 0.805114 1.22001 0.768875 1.4062 0.768597H18.5938C18.7755 0.767183 18.9557 0.800827 19.1239 0.86758C19.2921 0.934334 19.445 1.03287 19.5738 1.15748C19.5756 1.15982 10 9.18391 10 9.18391C10 9.18391 0.4058 1.1779 0.4062 1.17693ZM0 13.6975V1.99359L6.875 7.88522L0 13.6975ZM9.972 10.561L12.5 8.41878C12.5 8.41878 19.533 14.3783 19.5314 14.3796C19.403 14.5041 19.2505 14.6025 19.0827 14.6693C18.9149 14.7361 18.7351 14.7698 18.5538 14.7685H1.3902C1.20418 14.7683 1.02008 14.732 0.848606 14.6619C0.677133 14.5918 0.521715 14.4892 0.3914 14.3602L7.5 8.41878L9.972 10.561Z" fill="#B4B4B4"/>
</svg>
