<svg width="13" height="13" viewBox="0 0 13 13" fill="none" xmlns="http://www.w3.org/2000/svg">
<path d="M11 5.04167C11 5.20833 11.0625 5.35417 11.1875 5.47917C11.3125 5.60417 11.4583 5.66667 11.625 5.66667C11.7917 5.66667 11.9375 5.60417 12.0625 5.47917C12.6667 4.875 13 4.0625 13 3.20833C13 2.35417 12.6667 1.54167 12.0625 0.9375C11.4583 0.333333 10.6458 0 9.79167 0C8.9375 0 8.125 0.333333 7.52083 0.9375L0.9375 7.52083C0.333333 8.125 0 8.9375 0 9.79167C0 10.6458 0.333333 11.4583 0.9375 12.0625C1.54167 12.6667 2.35417 13 3.20833 13C4.0625 13 4.875 12.6667 5.47917 12.0625L9.95833 7.58333C10.625 6.83333 10.5833 5.6875 9.875 4.95833C9.52083 4.60417 9.04167 4.39583 8.52083 4.39583C8 4.39583 7.52083 4.60417 7.16667 4.95833L3.5 8.625C3.375 8.75 3.3125 8.89583 3.3125 9.0625C3.3125 9.22917 3.375 9.375 3.5 9.5C3.72917 9.72917 4.14583 9.72917 4.375 9.5L8.04167 5.83333C8.29167 5.58333 8.72917 5.58333 9 5.83333C9.27083 6.10417 9.27083 6.52083 9 6.79167L4.60417 11.1875C4.22917 11.5625 3.72917 11.7708 3.20833 11.7708C2.6875 11.7708 2.1875 11.5625 1.8125 11.1875C1.4375 10.8125 1.22917 10.3125 1.22917 9.79167C1.22917 9.27083 1.4375 8.77083 1.8125 8.39583L8.39583 1.8125C8.77083 1.4375 9.27083 1.22917 9.79167 1.22917C10.3125 1.22917 10.8125 1.4375 11.1875 1.8125C11.9583 2.58333 11.9583 3.83333 11.1875 4.60417C11.0625 4.70833 11 4.875 11 5.04167Z" fill="#313840"/>
</svg>
