<svg width="19" height="19" viewBox="0 0 19 19" fill="none" xmlns="http://www.w3.org/2000/svg">
<path fill-rule="evenodd" clip-rule="evenodd" d="M13.2627 18.6382H5.5415C4.17631 18.6382 2.86703 18.1035 1.9017 17.1518C0.936359 16.2 0.394043 14.9092 0.394043 13.5632V5.69703C0.394043 4.35107 0.936359 3.06023 1.9017 2.10849C2.86703 1.15675 4.17631 0.62207 5.5415 0.62207H13.2627C14.6279 0.62207 15.9372 1.15675 16.9025 2.10849C17.8678 3.06023 18.4102 4.35107 18.4102 5.69703V13.5632C18.4102 14.2297 18.277 14.8896 18.0183 15.5053C17.7596 16.121 17.3805 16.6805 16.9025 17.1518C16.4245 17.623 15.8571 17.9968 15.2325 18.2519C14.608 18.5069 13.9387 18.6382 13.2627 18.6382ZM16.7372 5.31641C16.7372 4.47518 16.3983 3.66841 15.7949 3.07357C15.1916 2.47873 14.3733 2.14456 13.5201 2.14456H5.15544C4.3022 2.14456 3.48391 2.47873 2.88057 3.07357C2.27724 3.66841 1.93828 4.47518 1.93828 5.31641V13.5632C1.93828 14.4044 2.27724 15.2112 2.88057 15.8061C3.48391 16.4009 4.3022 16.7351 5.15544 16.7351H13.5201C14.3733 16.7351 15.1916 16.4009 15.7949 15.8061C16.3983 15.2112 16.7372 14.4044 16.7372 13.5632V5.31641ZM14.1635 5.82391C13.9344 5.82391 13.7105 5.75694 13.5201 5.63147C13.3296 5.506 13.1811 5.32766 13.0935 5.11901C13.0058 4.91036 12.9829 4.68077 13.0276 4.45927C13.0723 4.23777 13.1826 4.03431 13.3445 3.87462C13.5065 3.71493 13.7129 3.60617 13.9375 3.56211C14.1622 3.51805 14.3951 3.54067 14.6067 3.62709C14.8183 3.71352 14.9992 3.85987 15.1265 4.04765C15.2538 4.23543 15.3217 4.4562 15.3217 4.68204C15.3217 4.98488 15.1997 5.27532 14.9825 5.48946C14.7653 5.7036 14.4707 5.82391 14.1635 5.82391ZM9.33776 14.1976C8.40876 14.1976 7.50064 13.926 6.72821 13.4171C5.95578 12.9083 5.35375 12.185 4.99825 11.3389C4.64274 10.4927 4.54971 9.56155 4.73094 8.66325C4.91218 7.76494 5.35953 6.93979 6.01643 6.29215C6.67332 5.6445 7.51026 5.20345 8.4214 5.02477C9.33254 4.84608 10.277 4.93779 11.1352 5.28829C11.9935 5.6388 12.7271 6.23235 13.2432 6.9939C13.7593 7.75545 14.0348 8.65078 14.0348 9.56669C14.0348 10.7949 13.54 11.9728 12.6591 12.8412C11.7782 13.7097 10.5835 14.1976 9.33776 14.1976ZM9.33776 6.58515C8.73964 6.58515 8.15495 6.76001 7.65764 7.08763C7.16032 7.41525 6.77271 7.8809 6.54382 8.4257C6.31493 8.97051 6.25504 9.57 6.37173 10.1484C6.48842 10.7267 6.77643 11.258 7.19936 11.675C7.6223 12.0919 8.16116 12.3759 8.74778 12.4909C9.3344 12.606 9.94245 12.5469 10.495 12.3213C11.0476 12.0956 11.5199 11.7135 11.8522 11.2231C12.1845 10.7328 12.3619 10.1564 12.3619 9.56669C12.3619 8.77594 12.0433 8.01757 11.4761 7.45842C10.909 6.89927 10.1398 6.58515 9.33776 6.58515Z" fill="white"/>
</svg>
