<svg width="23" height="23" viewBox="0 0 23 23" fill="none" xmlns="http://www.w3.org/2000/svg">
<path fill-rule="evenodd" clip-rule="evenodd" d="M15.8647 22.485H6.55771C4.91213 22.485 3.33394 21.8405 2.17033 20.6932C1.00673 19.546 0.353027 17.9901 0.353027 16.3677V6.88585C0.353027 5.26344 1.00673 3.70749 2.17033 2.56027C3.33394 1.41305 4.91213 0.768555 6.55771 0.768555H15.8647C17.5103 0.768555 19.0885 1.41305 20.2521 2.56027C21.4157 3.70749 22.0694 5.26344 22.0694 6.88585V16.3677C22.0694 17.171 21.9089 17.9665 21.5971 18.7087C21.2853 19.4508 20.8283 20.1252 20.2521 20.6932C19.676 21.2613 18.992 21.7119 18.2392 22.0193C17.4864 22.3267 16.6796 22.485 15.8647 22.485ZM20.0529 6.42705C20.0529 5.41305 19.6443 4.44058 18.9171 3.72357C18.1898 3.00656 17.2035 2.60374 16.175 2.60374H6.09236C5.06387 2.60374 4.07751 3.00656 3.35026 3.72357C2.62301 4.44058 2.21443 5.41305 2.21443 6.42705V16.3677C2.21443 17.3817 2.62301 18.3541 3.35026 19.0712C4.07751 19.7882 5.06387 20.191 6.09236 20.191H16.175C17.2035 20.191 18.1898 19.7882 18.9171 19.0712C19.6443 18.3541 20.0529 17.3817 20.0529 16.3677V6.42705ZM16.9506 7.03878C16.6745 7.03878 16.4045 6.95806 16.175 6.80682C15.9454 6.65558 15.7664 6.44062 15.6608 6.18911C15.5551 5.93761 15.5275 5.66087 15.5813 5.39387C15.6352 5.12688 15.7682 4.88163 15.9634 4.68914C16.1586 4.49664 16.4074 4.36556 16.6782 4.31245C16.949 4.25934 17.2297 4.2866 17.4848 4.39077C17.7399 4.49495 17.958 4.67136 18.1114 4.89771C18.2648 5.12406 18.3466 5.39017 18.3466 5.66239C18.3466 6.02743 18.1995 6.37752 17.9377 6.63565C17.6759 6.89377 17.3208 7.03878 16.9506 7.03878ZM11.1337 17.1323C10.0139 17.1323 8.91923 16.8049 7.98816 16.1916C7.05708 15.5782 6.33141 14.7064 5.90288 13.6864C5.47435 12.6665 5.36222 11.5441 5.58068 10.4613C5.79914 9.37848 6.33837 8.38386 7.13018 7.6032C7.922 6.82254 8.93083 6.2909 10.0291 6.07551C11.1274 5.86013 12.2658 5.97067 13.3003 6.39316C14.3349 6.81566 15.2191 7.53112 15.8413 8.44908C16.4634 9.36704 16.7954 10.4463 16.7954 11.5503C16.7954 13.0307 16.1989 14.4506 15.1372 15.4974C14.0754 16.5442 12.6353 17.1323 11.1337 17.1323ZM11.1337 7.95638C10.4127 7.95638 9.70793 8.16716 9.10848 8.56206C8.50902 8.95697 8.04179 9.51826 7.76589 10.175C7.48999 10.8317 7.41781 11.5543 7.55846 12.2514C7.69911 12.9486 8.04628 13.589 8.55608 14.0916C9.06588 14.5942 9.71541 14.9365 10.4225 15.0751C11.1296 15.2138 11.8626 15.1426 12.5286 14.8706C13.1947 14.5986 13.764 14.138 14.1646 13.547C14.5651 12.9559 14.7789 12.2611 14.7789 11.5503C14.7789 10.5971 14.3949 9.683 13.7113 9.00901C13.0276 8.33502 12.1005 7.95638 11.1337 7.95638Z" fill="#F7F7F7"/>
</svg>
