<svg width="21" height="21" viewBox="0 0 21 21" fill="none" xmlns="http://www.w3.org/2000/svg">
<path fill-rule="evenodd" clip-rule="evenodd" d="M14.6041 21H6.03265C4.51712 21 3.06367 20.3768 1.99203 19.2674C0.920394 18.158 0.318359 16.6534 0.318359 15.0845V5.91549C0.318359 4.34661 0.920394 2.84198 1.99203 1.73261C3.06367 0.623238 4.51712 0 6.03265 0H14.6041C16.1196 0 17.5731 0.623238 18.6447 1.73261C19.7163 2.84198 20.3184 4.34661 20.3184 5.91549V15.0845C20.3184 15.8613 20.1706 16.6306 19.8834 17.3483C19.5962 18.066 19.1753 18.7181 18.6447 19.2674C18.1141 19.8167 17.4841 20.2524 16.7908 20.5497C16.0976 20.847 15.3545 21 14.6041 21ZM18.4612 5.47183C18.4612 4.49128 18.0849 3.55088 17.4152 2.85753C16.7454 2.16417 15.837 1.77465 14.8898 1.77465H5.60407C4.65687 1.77465 3.74847 2.16417 3.0787 2.85753C2.40893 3.55088 2.03265 4.49128 2.03265 5.47183V15.0845C2.03265 16.0651 2.40893 17.0055 3.0787 17.6988C3.74847 18.3922 4.65687 18.7817 5.60407 18.7817H14.8898C15.837 18.7817 16.7454 18.3922 17.4152 17.6988C18.0849 17.0055 18.4612 16.0651 18.4612 15.0845V5.47183ZM15.6041 6.06338C15.3498 6.06338 15.1012 5.98532 14.8898 5.83907C14.6783 5.69282 14.5135 5.48495 14.4162 5.24174C14.3189 4.99853 14.2935 4.73092 14.3431 4.47273C14.3927 4.21455 14.5151 3.97739 14.6949 3.79125C14.8747 3.6051 15.1038 3.47834 15.3532 3.42698C15.6026 3.37563 15.8612 3.40198 16.0961 3.50272C16.331 3.60346 16.5318 3.77406 16.6731 3.99294C16.8144 4.21182 16.8898 4.46915 16.8898 4.73239C16.8898 5.08539 16.7543 5.42393 16.5132 5.67354C16.2721 5.92315 15.9451 6.06338 15.6041 6.06338ZM10.2469 15.8239C9.21564 15.8239 8.20751 15.5074 7.35003 14.9142C6.49254 14.3211 5.82422 13.4781 5.42957 12.4917C5.03491 11.5054 4.93164 10.4201 5.13283 9.37298C5.33402 8.32589 5.83064 7.36408 6.55987 6.60917C7.2891 5.85427 8.21819 5.34017 9.22967 5.13189C10.2411 4.92361 11.2896 5.03051 12.2423 5.43906C13.1951 5.84761 14.0095 6.53947 14.5825 7.42715C15.1554 8.31483 15.4612 9.35845 15.4612 10.4261C15.4612 11.8577 14.9119 13.2306 13.934 14.2429C12.9561 15.2552 11.6298 15.8239 10.2469 15.8239ZM10.2469 6.9507C9.58295 6.9507 8.93388 7.15453 8.3818 7.53641C7.82972 7.91828 7.39943 8.46106 7.14533 9.0961C6.89124 9.73113 6.82476 10.4299 6.95429 11.1041C7.08383 11.7782 7.40356 12.3975 7.87306 12.8835C8.34257 13.3695 8.94077 13.7005 9.59199 13.8346C10.2432 13.9687 10.9182 13.8999 11.5317 13.6369C12.1451 13.3738 12.6694 12.9284 13.0383 12.3569C13.4072 11.7853 13.6041 11.1134 13.6041 10.4261C13.6041 9.50434 13.2504 8.62037 12.6208 7.96861C11.9912 7.31686 11.1373 6.9507 10.2469 6.9507Z" fill="#FA7916"/>
</svg>
