<svg width="15" height="19" viewBox="0 0 15 19" fill="none" xmlns="http://www.w3.org/2000/svg">
<path fill-rule="evenodd" clip-rule="evenodd" d="M7.30263 0C11.3356 0 14.6053 3.03029 14.6053 6.76729C14.6053 10.5043 7.30263 18.5 7.30263 18.5C7.30263 18.5 0 10.5043 0 6.76729C0 3.03029 3.26963 0 7.30263 0ZM7.30653 3.83319C7.95359 3.83319 8.58612 4.01547 9.12413 4.35698C9.66214 4.6985 10.0814 5.18391 10.3291 5.75182C10.5767 6.31974 10.6415 6.94464 10.5152 7.54753C10.389 8.15043 10.0774 8.70423 9.61989 9.13889C9.16235 9.57355 8.5794 9.86956 7.94477 9.98948C7.31015 10.1094 6.65236 10.0478 6.05455 9.81261C5.45675 9.57737 4.94579 9.17903 4.5863 8.66792C4.22681 8.15682 4.03494 7.55591 4.03494 6.9412C4.03494 6.11691 4.37963 5.32638 4.99317 4.74352C5.60671 4.16065 6.43885 3.83319 7.30653 3.83319Z" fill="#313840"/>
</svg>
