<svg width="22" height="21" viewBox="0 0 22 21" fill="none" xmlns="http://www.w3.org/2000/svg">
<path fill-rule="evenodd" clip-rule="evenodd" d="M12.0059 0.813721L13.8515 3.27626L15.1477 2.78212L15.5383 3.52674H18.7161C18.9232 3.52674 19.0911 3.69085 19.0911 3.8933C19.0911 3.90702 19.0904 3.92057 19.0889 3.93389C19.0904 3.94722 19.0911 3.96076 19.0911 3.97448V6.1244H20.4539V11.3197H21.1353V15.3H20.4539V20.4953H0.625V5.19214C0.625 4.26371 1.41208 3.52674 2.36278 3.52674H7.13251C7.15335 3.52674 7.1738 3.5284 7.19371 3.53159L12.0059 0.813721ZM5.90424 4.25987H2.36278C1.80828 4.25987 1.375 4.686 1.375 5.19214C1.375 5.69827 1.80828 6.1244 2.36278 6.1244H2.60293L5.90424 4.25987ZM2.69698 6.85754C2.70154 6.85762 2.7061 6.85762 2.71067 6.85754H6.44256C6.44831 6.85767 6.45409 6.85767 6.45987 6.85754H16.6646C16.6697 6.85764 16.6748 6.85764 16.68 6.85754H19.7039V11.3197H17.6941C16.5553 11.3197 15.6156 12.2022 15.6156 13.3098C15.6156 14.4175 16.5553 15.3 17.6941 15.3H19.7039V19.7621H1.375V6.56224C1.65656 6.7488 1.9976 6.85754 2.36278 6.85754H2.69698ZM20.3853 14.5668H17.6941C16.9515 14.5668 16.3656 13.9952 16.3656 13.3098C16.3656 12.6245 16.9515 12.0529 17.6941 12.0529H20.3853V14.5668ZM18.3411 6.1244V4.25987H15.9229L16.9011 6.1244H18.3411ZM16.0582 6.1244L14.9789 4.067C14.9764 4.06259 14.9741 4.05813 14.9719 4.05362L14.7893 3.70566L8.44473 6.1244H16.0582ZM6.38058 6.1244H4.1021L11.7985 1.77755L13.1284 3.55194L6.38058 6.1244ZM17.3191 13.3098C17.3191 13.1074 17.4869 12.9433 17.6941 12.9433H17.6975C17.9046 12.9433 18.0725 13.1074 18.0725 13.3098C18.0725 13.5123 17.9046 13.6764 17.6975 13.6764H17.6941C17.4869 13.6764 17.3191 13.5123 17.3191 13.3098Z" fill="#313840" stroke="#313840" stroke-width="0.75" stroke-linecap="round"/>
</svg>
