<svg width="21" height="25" viewBox="0 0 21 25" fill="none" xmlns="http://www.w3.org/2000/svg">
<path d="M4.38883 1.33545C2.49664 1.33545 0.957031 2.78907 0.957031 4.57558C0.957031 6.36209 2.49664 7.81546 4.38883 7.81546C6.28102 7.81546 7.82037 6.36209 7.82037 4.57558C7.82037 2.78907 6.28102 1.33545 4.38883 1.33545ZM4.38883 7.31688C2.78773 7.31688 1.48484 6.08701 1.48484 4.57533C1.48484 3.06365 2.78747 1.83378 4.38883 1.83378C5.9902 1.83378 7.29256 3.0639 7.29256 4.57558C7.29256 6.08726 5.98994 7.31688 4.38883 7.31688Z" fill="#313840"/>
<path d="M4.73085 4.41661L4.65063 4.41512V3.44238L5.21485 3.45309L5.22567 2.95477L4.65063 2.9438V2.39016H4.12282V2.93583C3.85311 2.94505 3.59686 3.03051 3.40157 3.20891C3.20206 3.3908 3.08911 3.63598 3.08357 3.89885C3.07222 4.44178 3.52877 4.89227 4.10065 4.90298L4.12282 4.90348V5.87621L3.36515 5.86176L3.35433 6.36009L4.12282 6.37479V6.87511H4.65063V6.38476L4.68942 6.38551C4.69628 6.38551 4.70341 6.38576 4.71053 6.38576C4.97998 6.38576 5.23491 6.28833 5.42993 6.11068C5.62944 5.92879 5.74239 5.68361 5.74794 5.42074C5.75902 4.87757 5.30273 4.42733 4.73085 4.41661ZM4.11121 4.40465C3.83015 4.39942 3.60557 4.17692 3.61111 3.90857C3.61375 3.7785 3.6697 3.65716 3.7684 3.56721C3.86419 3.47951 3.99905 3.43515 4.12282 3.43316V4.4049L4.11121 4.40465ZM5.06311 5.75213C4.96467 5.84183 4.82823 5.89166 4.69998 5.88718L4.65063 5.88618V4.91345L4.7203 4.91469C5.00135 4.91992 5.22567 5.14243 5.22039 5.41078C5.21749 5.54109 5.16181 5.66243 5.06311 5.75213Z" fill="#313840"/>
<path d="M9.65925 4.38347L11.0149 3.08334L10.6386 2.73401L8.69204 4.60074L10.6386 6.46748L11.0149 6.11815L9.72575 4.8818H18.4292C18.9815 4.8818 19.4292 5.31945 19.4292 5.85932V19.3216H9.40089V8.3701H8.87308V22.8408C8.87308 23.3806 9.3208 23.8183 9.87308 23.8183H18.957C19.5093 23.8183 19.957 23.3806 19.957 22.8408V5.36099C19.957 4.82112 19.5093 4.38347 18.957 4.38347H9.65925ZM10.4009 23.3199C9.84861 23.3199 9.40089 22.8823 9.40089 22.3424V19.8199H19.4292V22.3424C19.4292 22.8823 18.9815 23.3199 18.4292 23.3199H10.4009Z" fill="#313840"/>
<path d="M14.4678 20.5084C13.8371 20.5084 13.3241 20.9928 13.3241 21.5883C13.3241 22.184 13.8371 22.6684 14.4678 22.6684C15.0986 22.6684 15.6116 22.184 15.6116 21.5883C15.6116 20.9928 15.0986 20.5084 14.4678 20.5084ZM14.4678 22.1701C14.1282 22.1701 13.8519 21.9089 13.8519 21.5883C13.8519 21.2676 14.1282 21.0067 14.4678 21.0067C14.8075 21.0067 15.0838 21.2676 15.0838 21.5883C15.0838 21.9089 14.8075 22.1701 14.4678 22.1701Z" fill="#313840"/>
<path d="M15.2068 6.12762C15.3527 6.12762 15.4707 6.01625 15.4707 5.87846C15.4707 5.74067 15.3527 5.62929 15.2068 5.62929H13.6233C13.4774 5.62929 13.3594 5.74067 13.3594 5.87846C13.3594 6.01625 13.4774 6.12762 13.6233 6.12762H15.2068Z" fill="#313840"/>
<path d="M4.38883 1.33545C2.49664 1.33545 0.957031 2.78907 0.957031 4.57558C0.957031 6.36209 2.49664 7.81546 4.38883 7.81546C6.28102 7.81546 7.82037 6.36209 7.82037 4.57558C7.82037 2.78907 6.28102 1.33545 4.38883 1.33545ZM4.38883 7.31688C2.78773 7.31688 1.48484 6.08701 1.48484 4.57533C1.48484 3.06365 2.78747 1.83378 4.38883 1.83378C5.9902 1.83378 7.29256 3.0639 7.29256 4.57558C7.29256 6.08726 5.98994 7.31688 4.38883 7.31688Z" stroke="#313840" stroke-width="0.75"/>
<path d="M4.73085 4.41661L4.65063 4.41512V3.44238L5.21485 3.45309L5.22567 2.95477L4.65063 2.9438V2.39016H4.12282V2.93583C3.85311 2.94505 3.59686 3.03051 3.40157 3.20891C3.20206 3.3908 3.08911 3.63598 3.08357 3.89885C3.07222 4.44178 3.52877 4.89227 4.10065 4.90298L4.12282 4.90348V5.87621L3.36515 5.86176L3.35433 6.36009L4.12282 6.37479V6.87511H4.65063V6.38476L4.68942 6.38551C4.69628 6.38551 4.70341 6.38576 4.71053 6.38576C4.97998 6.38576 5.23491 6.28833 5.42993 6.11068C5.62944 5.92879 5.74239 5.68361 5.74794 5.42074C5.75902 4.87757 5.30273 4.42733 4.73085 4.41661ZM4.11121 4.40465C3.83015 4.39942 3.60557 4.17692 3.61111 3.90857C3.61375 3.7785 3.6697 3.65716 3.7684 3.56721C3.86419 3.47951 3.99905 3.43515 4.12282 3.43316V4.4049L4.11121 4.40465ZM5.06311 5.75213C4.96467 5.84183 4.82823 5.89166 4.69998 5.88718L4.65063 5.88618V4.91345L4.7203 4.91469C5.00135 4.91992 5.22567 5.14243 5.22039 5.41078C5.21749 5.54109 5.16181 5.66243 5.06311 5.75213Z" stroke="#313840" stroke-width="0.75"/>
<path d="M9.65925 4.38347L11.0149 3.08334L10.6386 2.73401L8.69204 4.60074L10.6386 6.46748L11.0149 6.11815L9.72575 4.8818H18.4292C18.9815 4.8818 19.4292 5.31945 19.4292 5.85932V19.3216H9.40089V8.3701H8.87308V22.8408C8.87308 23.3806 9.3208 23.8183 9.87308 23.8183H18.957C19.5093 23.8183 19.957 23.3806 19.957 22.8408V5.36099C19.957 4.82112 19.5093 4.38347 18.957 4.38347H9.65925ZM10.4009 23.3199C9.84861 23.3199 9.40089 22.8823 9.40089 22.3424V19.8199H19.4292V22.3424C19.4292 22.8823 18.9815 23.3199 18.4292 23.3199H10.4009Z" stroke="#313840" stroke-width="0.75"/>
<path d="M14.4678 20.5084C13.8371 20.5084 13.3241 20.9928 13.3241 21.5883C13.3241 22.184 13.8371 22.6684 14.4678 22.6684C15.0986 22.6684 15.6116 22.184 15.6116 21.5883C15.6116 20.9928 15.0986 20.5084 14.4678 20.5084ZM14.4678 22.1701C14.1282 22.1701 13.8519 21.9089 13.8519 21.5883C13.8519 21.2676 14.1282 21.0067 14.4678 21.0067C14.8075 21.0067 15.0838 21.2676 15.0838 21.5883C15.0838 21.9089 14.8075 22.1701 14.4678 22.1701Z" stroke="#313840" stroke-width="0.75"/>
<path d="M15.2068 6.12762C15.3527 6.12762 15.4707 6.01625 15.4707 5.87846C15.4707 5.74067 15.3527 5.62929 15.2068 5.62929H13.6233C13.4774 5.62929 13.3594 5.74067 13.3594 5.87846C13.3594 6.01625 13.4774 6.12762 13.6233 6.12762H15.2068Z" stroke="#313840" stroke-width="0.75"/>
</svg>
