<svg width="20" height="20" viewBox="0 0 20 20" fill="none" xmlns="http://www.w3.org/2000/svg">
<path fill-rule="evenodd" clip-rule="evenodd" d="M0.5572 4.50101C0.5572 4.50101 0.516483 3.43327 1.19416 2.05164C1.67221 1.07453 3.5332 0.534758 3.5332 0.534758C3.5332 0.534758 4.32907 0.3325 5.92871 1.87698C6.56454 2.46554 6.96889 3.26211 7.06869 4.12277C7.12647 4.90814 5.45197 6.58263 5.45197 6.58263C5.58157 7.54406 5.98299 8.44851 6.60902 9.18961C7.267 9.95528 8.40039 11.1491 8.99533 11.7073C9.50491 12.1853 10.0736 12.8091 10.83 13.3108C12.318 14.2972 12.6753 14.2078 12.6753 14.2078C12.6753 14.2078 14.795 12.4322 15.4293 12.4939C15.9113 12.5425 16.5943 12.8604 17.4676 13.605C18.1164 14.1566 18.5314 14.5743 18.8571 15.1311C18.9731 15.3234 19.0644 15.5294 19.129 15.7444C19.129 15.7444 19.2143 16.6257 17.8459 18.0283C16.4839 19.4218 14.6059 19.0567 14.6059 19.0567C14.6059 19.0567 13.5263 18.8964 11.7599 18.0651C9.8041 17.1114 8.02216 15.8364 6.48817 14.2932C5.05664 12.8144 3.17991 10.5515 2.26714 8.97683C1.11798 6.99765 0.5572 4.50101 0.5572 4.50101Z" fill="#B4B4B4"/>
</svg>
