<svg width="22" height="22" viewBox="0 0 22 22" fill="none" xmlns="http://www.w3.org/2000/svg">
<path d="M10.891 0.604004C5.12283 0.604004 0.450439 5.27639 0.450439 11.0446C0.450439 15.3213 3.02254 18.9892 6.69804 20.61C6.6676 19.8795 6.69043 19.0044 6.88068 18.213C7.07853 17.3683 8.2276 12.5209 8.2276 12.5209C8.2276 12.5209 7.89278 11.8512 7.89278 10.8696C7.89278 9.32478 8.79073 8.1681 9.90936 8.1681C10.8606 8.1681 11.3172 8.88341 11.3172 9.73571C11.3172 10.6869 10.7084 12.1176 10.3964 13.4417C10.1377 14.5527 10.9519 15.4506 12.0477 15.4506C14.0262 15.4506 15.3579 12.909 15.3579 9.90312C15.3579 7.61259 13.8132 5.90039 11.0128 5.90039C7.84712 5.90039 5.87619 8.25941 5.87619 10.9C5.87619 11.8132 6.14253 12.4524 6.56107 12.947C6.75131 13.1753 6.78175 13.2666 6.71326 13.5254C6.66 13.7156 6.54585 14.1798 6.50019 14.3624C6.4317 14.6288 6.21863 14.7201 5.97512 14.6212C4.51405 14.0276 3.83678 12.4296 3.83678 10.6337C3.83678 7.66585 6.34039 4.1121 11.3019 4.1121C15.2895 4.1121 17.9148 6.99619 17.9148 10.0934C17.9148 14.1874 15.6395 17.2465 12.2836 17.2465C11.1574 17.2465 10.0996 16.6378 9.73433 15.9453C9.73433 15.9453 9.12556 18.3499 8.99619 18.8141C8.77551 19.6208 8.34175 20.4198 7.94604 21.0514C8.88204 21.3254 9.87892 21.4776 10.9062 21.4776C16.6744 21.4776 21.3468 16.8052 21.3468 11.037C21.3316 5.27639 16.6592 0.604004 10.891 0.604004Z" fill="#FA7916"/>
</svg>
