<svg width="24" height="23" viewBox="0 0 24 23" fill="none" xmlns="http://www.w3.org/2000/svg">
<path d="M13.1877 9.75886L11.9643 5.95931L13.1843 4.39843L13.2945 4.25427C13.3559 4.1734 13.4242 4.08415 13.4502 4.05142C14.1323 3.19133 14.3037 2.15733 14.2368 1.47629C14.193 1.03163 14.0476 0.684623 13.8268 0.499352C13.5998 0.307319 13.2378 0.226178 12.8079 0.270265C12.1556 0.337341 11.2131 0.718973 10.5246 1.58799C10.4703 1.65588 10.2876 1.88605 10.2493 1.93446L9.00308 3.52915L3.07146 2.7978C2.61292 2.74208 2.15963 2.9287 1.86618 3.29979L0.858811 4.57289C0.760909 4.69433 0.726263 4.85823 0.766421 5.01023C0.806317 5.16278 0.916818 5.28638 1.06039 5.34048L6.09331 7.2508L4.05389 9.85839L2.28903 9.89869C1.99164 9.90572 1.71421 10.0458 1.52576 10.2849L0 12.2599L4.2266 12.7805L5.56521 16.9366L7.09097 14.9624C7.27759 14.7263 7.35502 14.418 7.30305 14.1161L6.98703 12.3248L9.02776 9.71558L10.6139 12.354V22.7414H24V9.75886H13.1877ZM15.8633 10.2998H18.7505V15.2212L17.3411 14.3141L15.8633 15.2304V10.2998ZM6.42849 12.1774L6.78702 14.2113C6.81222 14.3574 6.77495 14.5064 6.68309 14.6227L5.75918 15.8182L4.62057 12.2834L0.997922 11.8374L1.93548 10.6238C2.02498 10.51 2.15884 10.4429 2.30189 10.4394L4.31033 10.3931L6.96131 7.00332L1.31053 4.8585L2.2738 3.64112C2.45307 3.41447 2.73156 3.29952 3.00978 3.33468L9.23012 4.10146L10.6585 2.27363C10.696 2.22576 10.8766 1.99829 10.9307 1.93067C11.5191 1.18824 12.3381 0.86178 12.8606 0.807957C13.1418 0.779558 13.3793 0.819858 13.4945 0.917227L13.495 0.917767C13.579 0.98836 13.6809 1.18607 13.7147 1.53038C13.7712 2.10377 13.6244 2.97712 13.0436 3.70928C13.0166 3.74336 12.946 3.8364 12.8822 3.91997L11.3761 5.85004L13.3733 12.0527C13.463 12.3313 13.4095 12.632 13.2297 12.8579L12.2654 14.0758L9.08498 8.78111L6.42849 12.1774ZM23.4751 22.2004H11.1388V13.2279L11.8562 14.4223C11.9367 14.5559 12.0756 14.6422 12.2273 14.653C12.3848 14.6614 12.5284 14.5973 12.6268 14.4745L13.6357 13.2006C13.9297 12.8311 14.0179 12.3383 13.8712 11.8829L13.362 10.2998H15.3384V16.1879L17.3358 14.9486L19.2755 16.1971V10.2998H23.4751V22.2004Z" fill="#313840"/>
<path d="M22.1627 19.4957H18.7505V20.0367H22.1627V19.4957Z" fill="#313840"/>
<path d="M22.1627 20.5776H18.7505V21.1186H22.1627V20.5776Z" fill="#313840"/>
</svg>
