<svg width="18" height="21" viewBox="0 0 18 21" fill="#fff" xmlns="http://www.w3.org/2000/svg">
<path d="M9.21102 11.9895C9.1735 11.9895 9.13751 11.9755 9.10914 11.9501L6.53208 9.6047C6.46955 9.54767 6.46406 9.44971 6.52049 9.38585C6.57722 9.32168 6.67361 9.31703 6.73583 9.37376L9.19363 11.6104L12.6951 6.97737C12.7481 6.91072 12.8439 6.9008 12.9095 6.95443C12.9751 7.00837 12.9851 7.10601 12.9321 7.17266L9.32967 11.9321C9.30343 11.965 9.265 11.9854 9.22322 11.9892C9.21925 11.9892 9.21529 11.9895 9.21102 11.9895Z" fill="#BCBCBC" stroke="#C8C8C8" stroke-width="0.5"/>
<path d="M9.35351 19.7864L9.22272 19.7095C9.10809 19.6417 4.13299 15.5544 4.08365 15.5136C2.06631 13.8475 1 11.5679 1 8.92131V2.51341L1.25116 2.50322C4.35544 2.37731 5.71586 1.80951 8.18555 0.778364C8.52114 0.638365 8.87565 0.490346 9.25632 0.334526L9.35372 0.294434L9.45112 0.334526C9.83179 0.490346 10.1865 0.638364 10.5221 0.778581C12.9916 1.80951 14.3522 2.37731 17.4565 2.50322L17.7074 2.51341V8.92109C17.7074 11.5677 16.6411 13.8471 14.6238 15.5134C14.5742 15.5542 9.59531 19.6445 9.4843 19.7093L9.35351 19.7864ZM1.52295 3.02443V8.92109C1.52295 11.4016 2.52226 13.538 4.41307 15.0993C5.02619 15.6058 8.57111 18.5119 9.35351 19.1417C10.1314 18.5148 13.6374 15.6419 14.2944 15.0993C16.1854 13.5376 17.1847 11.4014 17.1847 8.92109V3.02443C14.1602 2.87316 12.7004 2.26375 10.3237 1.27161C10.0179 1.14397 9.69654 1.0096 9.35372 0.868952C9.0109 1.0096 8.68935 1.14397 8.38397 1.2714C6.007 2.26375 4.54726 2.87316 1.52295 3.02443Z" fill="#BCBCBC" stroke="#C8C8C8" stroke-width="0.5"/>
</svg>
