<svg width="21" height="20" viewBox="0 0 21 20" fill="#FA7916" xmlns="http://www.w3.org/2000/svg">
<path d="M18.8944 2.80296L18.8948 2.80334C19.4131 3.34047 19.8252 3.97978 20.1066 4.68498C20.3879 5.3902 20.5327 6.14686 20.5321 6.91135C20.5316 7.67583 20.3857 8.43226 20.1034 9.13705C19.8211 9.84181 19.4081 10.4805 18.889 11.0168L18.8878 11.018L11.4384 18.7673C11.4383 18.7674 11.4382 18.7675 11.4381 18.7676C11.1847 19.0293 10.846 19.1727 10.4969 19.1727C10.148 19.1727 9.80948 19.0295 9.55618 18.768C9.55594 18.7677 9.5557 18.7675 9.55545 18.7673L9.02682 18.2155L9.01281 18.1995L9.00553 18.1911L8.99785 18.1832L2.09985 11.0093C2.0998 11.0093 2.09975 11.0092 2.0997 11.0092C1.05591 9.92255 0.466977 8.44562 0.467891 6.90237C0.468805 5.35905 1.05954 3.88281 2.1047 2.79753C3.14926 1.71287 4.56151 1.10758 6.02968 1.10852C7.49785 1.10946 8.9094 1.71656 9.95268 2.80257L9.95288 2.80278L10.1629 3.0211L10.5001 3.37169L10.8373 3.0211L11.0471 2.80296C11.0471 2.80294 11.0472 2.80291 11.0472 2.80288C11.0472 2.80285 11.0473 2.80281 11.0473 2.80278C12.0915 1.71843 13.5031 1.11288 14.9708 1.11288C16.4386 1.11288 17.8502 1.7185 18.8944 2.80296Z" stroke="#BCBCBC" stroke-width="0.93578"/>
</svg>
