<svg width="26" height="22" viewBox="0 0 26 22" fill="none" xmlns="http://www.w3.org/2000/svg">
<path d="M6.92045 0.986624C6.78766 1.01138 6.68271 1.1375 6.6851 1.26948V12.3538C5.93785 12.3197 5.16402 12.3008 4.3678 12.3008V12.0179C4.36778 11.8698 4.2298 11.7351 4.07814 11.7351H0.602201C0.584151 11.7322 0.56594 11.7322 0.54789 11.7351C0.415112 11.7597 0.310163 11.8859 0.31254 12.0179V19.6549C0.312545 19.8031 0.450533 19.9378 0.602201 19.9378H4.07814C4.22981 19.9378 4.3678 19.8031 4.3678 19.6549V18.3026C6.87036 19.6312 8.45293 20.7863 12.768 20.7864C15.0236 20.7864 17.7852 19.8504 20.0095 18.9301C22.2269 18.0127 23.9003 17.0974 23.9109 17.0916C23.9137 17.0888 23.9172 17.0944 23.92 17.0916C24.3561 16.8621 24.6708 16.679 24.8976 16.4287C25.1258 16.1767 25.2234 15.8556 25.2234 15.474C25.2234 15.158 25.0522 14.89 24.8342 14.7227C24.6162 14.5555 24.36 14.4585 24.101 14.3957C23.5831 14.27 23.051 14.2807 22.9061 14.2807V1.26948C22.9061 1.12138 22.7681 0.986639 22.6165 0.986624H15.9543C15.9362 0.984927 15.918 0.984927 15.9 0.986624C15.7483 1.00051 15.6232 1.1479 15.6375 1.296C15.6517 1.4441 15.8026 1.56622 15.9543 1.55233H22.3268V14.2807C22.3275 14.3017 22.3305 14.3224 22.3359 14.3426C21.8741 14.4289 21.3855 14.5944 20.96 14.758C20.3993 14.9736 19.9931 15.1602 19.9281 15.1912C19.7076 14.5009 19.0498 13.9979 18.2716 13.9979H12.8766C12.0803 13.2756 10.8877 12.862 9.45499 12.619C8.77464 12.5036 8.0389 12.4293 7.26442 12.3803V1.55233H14.2163C14.3693 1.55431 14.51 1.41891 14.51 1.26948C14.51 1.12005 14.3693 0.984543 14.2163 0.986624C11.7859 0.986624 9.34678 0.986624 6.92045 0.986624ZM0.891863 12.3008H3.78848V19.3721H0.891863V12.3008ZM4.3678 12.8665C6.19992 12.8665 7.92538 12.9333 9.35541 13.1758C10.7854 13.4184 11.9059 13.8367 12.5598 14.4752C12.6133 14.5303 12.6902 14.563 12.768 14.5636H18.2716C18.9185 14.5636 19.4302 15.0633 19.4302 15.695C19.4302 16.3267 18.9185 16.8264 18.2716 16.8264H9.87137C9.71811 16.8236 9.57689 16.9596 9.57689 17.1093C9.57689 17.2589 9.71811 17.3946 9.87137 17.3921H18.2716C19.2055 17.3921 19.972 16.6689 20.0095 15.7657C20.0538 15.7629 20.0975 15.7513 20.1363 15.7303C20.1363 15.7303 20.5965 15.5029 21.1772 15.2796C21.758 15.0563 22.4731 14.8464 22.9061 14.8464C23.051 14.8464 23.5327 14.8498 23.9562 14.9525C24.1679 15.0039 24.3642 15.0749 24.4812 15.1646C24.5981 15.2544 24.6441 15.3331 24.6441 15.474C24.6441 15.7778 24.597 15.9096 24.4631 16.0574C24.3292 16.2052 24.0679 16.3713 23.6394 16.5966C23.6363 16.5965 23.6333 16.5965 23.6303 16.5966C23.6303 16.5966 21.9852 17.5013 19.7923 18.4086C17.5993 19.316 14.8573 20.2207 12.768 20.2207C9.43708 20.2601 6.59002 18.8422 4.3678 17.6927V12.8665Z" fill="#BCBCBC" stroke="#C8C8C8" stroke-width="0.5"/>
</svg>
