<svg width="19" height="20" viewBox="0 0 19 20" fill="none" xmlns="http://www.w3.org/2000/svg">
<path d="M14.5979 12.2054L18.6963 8.6643C19.276 8.16142 18.9762 7.17663 18.2165 7.13472L12.9386 6.79947C12.6187 6.77852 12.3388 6.56899 12.2189 6.25469L10.2797 1.05832C9.9998 0.324961 9.0202 0.324961 8.74031 1.05832L6.80109 6.23374C6.68114 6.54803 6.40126 6.75757 6.08139 6.77852L0.783535 7.11377C0.0238426 7.15567 -0.276036 8.14047 0.303729 8.64335L4.40207 12.1635C4.64197 12.373 4.76192 12.7292 4.68195 13.0435L3.3425 18.4284C3.16257 19.1828 3.94225 19.7904 4.58199 19.3713L9.04019 16.375C9.32007 16.1865 9.65993 16.1865 9.91983 16.375L14.398 19.3713C15.0378 19.7904 15.8174 19.1828 15.6375 18.4284L14.2981 13.0645C14.2381 12.7502 14.338 12.4149 14.5979 12.2054Z" fill="#EDC22B"/>
</svg>
