<svg width="19" height="20" viewBox="0 0 19 20" fill="none" xmlns="http://www.w3.org/2000/svg">
<path d="M18.1848 7.63372L18.1848 7.63373L18.1889 7.63396C18.3305 7.64177 18.4362 7.7301 18.4811 7.87474C18.5268 8.02211 18.4915 8.1797 18.3691 8.28621C18.3689 8.28634 18.3688 8.28646 18.3687 8.28659L14.2768 11.8221C13.8617 12.1615 13.7172 12.6878 13.8069 13.1582L13.8095 13.172L13.813 13.1856L15.1512 18.5445C15.1513 18.5451 15.1515 18.5458 15.1516 18.5465C15.1925 18.7211 15.1244 18.8636 15.0206 18.9433C14.9216 19.0194 14.7991 19.0355 14.6736 18.9541C14.673 18.9538 14.6725 18.9534 14.672 18.9531L10.2048 15.9641C9.76486 15.6504 9.20007 15.6644 8.7608 15.9604L4.30606 18.9544C4.18068 19.0355 4.05832 19.0193 3.95939 18.9433C3.85557 18.8636 3.78748 18.7211 3.82839 18.5464C3.82854 18.5458 3.8287 18.5451 3.82885 18.5445L5.16651 13.1668C5.16664 13.1663 5.16677 13.1658 5.16689 13.1653C5.29467 12.6605 5.10594 12.1144 4.73098 11.7869L4.72785 11.7842L0.631348 8.26563C0.63111 8.26543 0.630873 8.26522 0.630636 8.26502C0.508402 8.1585 0.473237 8.00105 0.518902 7.85378C0.563753 7.70914 0.669521 7.62082 0.811074 7.61301L0.811075 7.61303L0.815112 7.61277L6.11296 7.27752L6.11407 7.27745C6.63732 7.24317 7.08161 6.90099 7.26823 6.41202L7.26824 6.41202L7.26931 6.40918L9.20744 1.2366C9.20759 1.23621 9.20774 1.23582 9.20789 1.23543C9.27159 1.06978 9.39579 1.0083 9.51 1.0083C9.62415 1.0083 9.7483 1.06973 9.81201 1.23521C9.81219 1.23567 9.81237 1.23614 9.81255 1.2366L11.7505 6.42951L11.7504 6.42951L11.7518 6.43297C11.9384 6.92195 12.3827 7.26413 12.9059 7.2984L12.9069 7.29847L18.1848 7.63372Z" stroke="#E3E3E3"/>
</svg>
