<svg width="19" height="19" viewBox="0 0 19 19" fill="none" xmlns="http://www.w3.org/2000/svg">
<path d="M7.48104 18.8955C6.87481 18.8955 6.28432 18.6506 5.8576 18.2239L0.671577 13.0379C0.238555 12.6049 0 12.0293 0 11.4176C0 10.8027 0.238555 10.2272 0.671577 9.79416L9.42806 1.03768C10.0965 0.368462 10.9869 0 11.9333 0H16.9272C18.0129 0 18.8955 0.883364 18.8955 1.96828V6.9622C18.8955 7.89438 18.5176 8.80766 17.8578 9.46742L9.10133 18.2239C8.6746 18.6506 8.08412 18.8955 7.48104 18.8955ZM11.9333 0.787312C11.1964 0.787312 10.5051 1.07389 9.9839 1.59431L1.22821 10.3508C0.943987 10.635 0.787312 11.0129 0.787312 11.4144C0.787312 11.8191 0.943987 12.197 1.22821 12.4805L6.41502 17.6673C6.97716 18.2294 7.98728 18.2247 8.54469 17.6673L17.3012 8.91001C17.8137 8.39747 18.1082 7.68731 18.1082 6.9622V1.96828C18.1082 1.31717 17.5783 0.787312 16.9272 0.787312H11.9333Z" fill="#313840"/>
<path d="M14.5653 6.29849C13.4796 6.29849 12.597 5.41513 12.597 4.33021C12.597 3.2453 13.4796 2.36194 14.5653 2.36194C15.651 2.36194 16.5335 3.2453 16.5335 4.33021C16.5335 5.41513 15.651 6.29849 14.5653 6.29849ZM14.5653 3.14925C13.9142 3.14925 13.3843 3.67911 13.3843 4.33021C13.3843 4.98132 13.9142 5.51118 14.5653 5.51118C15.2164 5.51118 15.7462 4.98132 15.7462 4.33021C15.7462 3.67911 15.2164 3.14925 14.5653 3.14925Z" fill="#313840"/>
<path d="M8.26677 14.1716C8.04948 14.1716 7.87312 13.9953 7.87312 13.778V7.47946C7.87312 7.26216 8.04948 7.08581 8.26677 7.08581C8.48407 7.08581 8.66043 7.26216 8.66043 7.47946V13.778C8.66043 13.9953 8.48407 14.1716 8.26677 14.1716Z" fill="#313840"/>
<path d="M5.90484 11.0224C5.25373 11.0224 4.72387 10.4925 4.72387 9.8414C4.72387 9.19029 5.25373 8.66043 5.90484 8.66043C6.55595 8.66043 7.08581 9.19029 7.08581 9.8414C7.08581 10.4925 6.55595 11.0224 5.90484 11.0224ZM5.90484 9.44774C5.68833 9.44774 5.51118 9.6241 5.51118 9.8414C5.51118 10.0587 5.68833 10.2351 5.90484 10.2351C6.12135 10.2351 6.29849 10.0587 6.29849 9.8414C6.29849 9.6241 6.12135 9.44774 5.90484 9.44774Z" fill="#313840"/>
<path d="M10.6287 12.597C9.9776 12.597 9.44774 12.0671 9.44774 11.416C9.44774 10.7649 9.9776 10.2351 10.6287 10.2351C11.2798 10.2351 11.8097 10.7649 11.8097 11.416C11.8097 12.0671 11.2798 12.597 10.6287 12.597ZM10.6287 11.0224C10.4122 11.0224 10.2351 11.1987 10.2351 11.416C10.2351 11.6333 10.4122 11.8097 10.6287 11.8097C10.8452 11.8097 11.0224 11.6333 11.0224 11.416C11.0224 11.1987 10.8452 11.0224 10.6287 11.0224Z" fill="#313840"/>
</svg>
