<svg width="13" height="13" viewBox="0 0 13 13" fill="none" xmlns="http://www.w3.org/2000/svg">
<path d="M5.10732 12.9C4.69345 12.9 4.29032 12.7328 3.999 12.4415L0.458487 8.901C0.162862 8.60537 0 8.21246 0 7.79482C0 7.37504 0.162862 6.98212 0.458487 6.6865L6.43656 0.708425C6.8929 0.25155 7.50081 0 8.14689 0H11.5562C12.2975 0 12.9 0.603075 12.9 1.34375V4.75311C12.9 5.38951 12.642 6.01301 12.1916 6.46344L6.2135 12.4415C5.92217 12.7328 5.51905 12.9 5.10732 12.9ZM8.14689 0.5375C7.64379 0.5375 7.17186 0.73315 6.81604 1.08844L0.8385 7.06651C0.644462 7.26055 0.5375 7.51855 0.5375 7.79267C0.5375 8.06895 0.644462 8.32695 0.8385 8.52045L4.37955 12.0615C4.76332 12.4453 5.45294 12.442 5.83349 12.0615L11.8116 6.08289C12.1615 5.73297 12.3625 5.24815 12.3625 4.75311V1.34375C12.3625 0.899237 12.0008 0.5375 11.5562 0.5375H8.14689Z" fill="#313840"/>
<path d="M9.94375 4.3C9.20254 4.3 8.6 3.69692 8.6 2.95625C8.6 2.21557 9.20254 1.6125 9.94375 1.6125C10.685 1.6125 11.2875 2.21557 11.2875 2.95625C11.2875 3.69692 10.685 4.3 9.94375 4.3ZM9.94375 2.15C9.49924 2.15 9.1375 2.51174 9.1375 2.95625C9.1375 3.40076 9.49924 3.7625 9.94375 3.7625C10.3883 3.7625 10.75 3.40076 10.75 2.95625C10.75 2.51174 10.3883 2.15 9.94375 2.15Z" fill="#313840"/>
<path d="M5.64375 9.675C5.4954 9.675 5.375 9.5546 5.375 9.40625V5.10625C5.375 4.9579 5.4954 4.8375 5.64375 4.8375C5.7921 4.8375 5.9125 4.9579 5.9125 5.10625V9.40625C5.9125 9.5546 5.7921 9.675 5.64375 9.675Z" fill="#313840"/>
<path d="M4.03125 7.525C3.58674 7.525 3.225 7.16326 3.225 6.71875C3.225 6.27424 3.58674 5.9125 4.03125 5.9125C4.47576 5.9125 4.8375 6.27424 4.8375 6.71875C4.8375 7.16326 4.47576 7.525 4.03125 7.525ZM4.03125 6.45C3.88344 6.45 3.7625 6.5704 3.7625 6.71875C3.7625 6.8671 3.88344 6.9875 4.03125 6.9875C4.17906 6.9875 4.3 6.8671 4.3 6.71875C4.3 6.5704 4.17906 6.45 4.03125 6.45Z" fill="#313840"/>
<path d="M7.25625 8.6C6.81174 8.6 6.45 8.23826 6.45 7.79375C6.45 7.34924 6.81174 6.9875 7.25625 6.9875C7.70076 6.9875 8.0625 7.34924 8.0625 7.79375C8.0625 8.23826 7.70076 8.6 7.25625 8.6ZM7.25625 7.525C7.10844 7.525 6.9875 7.6454 6.9875 7.79375C6.9875 7.9421 7.10844 8.0625 7.25625 8.0625C7.40406 8.0625 7.525 7.9421 7.525 7.79375C7.525 7.6454 7.40406 7.525 7.25625 7.525Z" fill="#313840"/>
</svg>
