<svg width="38" height="37" viewBox="0 0 38 37" fill="none" xmlns="http://www.w3.org/2000/svg">
<path d="M36.4624 20.1516L20.5848 4.46941C19.9912 3.88368 19.1713 3.57602 18.3337 3.6242L7.34329 4.26333C6.82783 4.2941 6.32942 4.45954 5.89918 4.74282L1.8854 0.778599C1.77608 0.674109 1.62914 0.615479 1.47691 0.615479C1.15483 0.615479 0.88916 0.877864 0.88916 1.19598C0.88916 1.34633 0.948523 1.49145 1.05432 1.59942L5.0681 5.56365C4.78127 5.98857 4.61376 6.48083 4.58261 6.98993L3.93608 17.8447C3.88671 18.6719 4.19822 19.4817 4.79185 20.068L20.6695 35.749C21.2202 36.2935 21.9678 36.5994 22.7472 36.5994C23.5259 36.5994 24.2742 36.2935 24.8249 35.749L36.4624 24.2557C37.0131 23.7118 37.3229 22.9734 37.3229 22.2036C37.3229 21.4345 37.0131 20.6955 36.4624 20.1516ZM35.6313 23.4349L23.9938 34.9282C23.3002 35.5818 22.1941 35.5818 21.5005 34.9282L5.62235 19.2466C5.26676 18.8954 5.07985 18.4095 5.10924 17.9132L5.75577 7.05785C5.76987 6.8332 5.82747 6.61377 5.9268 6.41117L8.42241 8.87655C8.10444 9.3514 7.93516 9.9081 7.93516 10.477C7.93516 12.0693 9.26173 13.3795 10.8739 13.3795C12.4861 13.3795 13.8127 12.0693 13.8127 10.477C13.8127 8.88468 12.4861 7.57449 10.8739 7.57449C10.2979 7.57449 9.73428 7.74226 9.2535 8.05573L6.75789 5.59093C6.96302 5.49341 7.18519 5.43594 7.41206 5.42201L18.4025 4.78288C18.4366 4.78113 18.4707 4.78055 18.5048 4.78055C18.9732 4.78055 19.4222 4.96399 19.7531 5.29023L35.6313 20.9724C36.3149 21.6481 36.3149 22.7597 35.6313 23.4349ZM10.4584 10.8874C10.5677 10.9919 10.7147 11.0505 10.8669 11.0505C11.189 11.0505 11.4546 10.7881 11.4546 10.47C11.4546 10.3197 11.3953 10.1745 11.2895 10.0666L10.1193 8.9108C10.3591 8.7976 10.6212 8.73897 10.8863 8.73897C11.8608 8.73897 12.6625 9.53077 12.6625 10.4927C12.6625 11.4551 11.8608 12.2469 10.8863 12.2469C9.91237 12.2469 9.11067 11.4551 9.11067 10.4927C9.11067 10.2291 9.17062 9.96847 9.287 9.73046L10.4584 10.8874Z" fill="black"/>
<path d="M15.0329 19.0991C14.4816 19.6436 14.1718 20.3826 14.1718 21.1518C14.1718 22.7441 15.4984 24.0543 17.1106 24.0543C18.7228 24.0543 20.0494 22.7441 20.0494 21.1518C20.0494 20.3826 19.7396 19.6436 19.1889 19.0991C18.0481 17.9753 16.1737 17.9753 15.0329 19.0991ZM18.3572 22.3836C18.0269 22.7093 17.579 22.8927 17.1118 22.8927C16.1449 22.8927 15.3497 22.1067 15.3497 21.1518C15.3497 20.1969 16.1449 19.4114 17.1118 19.4114C17.579 19.4114 18.0269 19.5943 18.3572 19.9205C19.0402 20.5962 19.0402 21.7073 18.3572 22.3836Z" fill="black"/>
<path d="M24.176 19.0991C23.6247 19.6436 23.3149 20.3826 23.3149 21.1518C23.3149 22.7441 24.6415 24.0543 26.2537 24.0543C27.8659 24.0543 29.1925 22.7441 29.1925 21.1518C29.1925 20.3826 28.8827 19.6436 28.332 19.0991C27.1912 17.9759 25.3168 17.9759 24.176 19.0991ZM27.5009 22.3836C27.1706 22.7092 26.7221 22.8927 26.2549 22.8927C25.2886 22.8927 24.4928 22.1067 24.4928 21.1518C24.4928 20.1968 25.2886 19.4114 26.2549 19.4114C26.7221 19.4114 27.1706 19.5943 27.5009 19.9205C28.1839 20.5962 28.1839 21.7073 27.5009 22.3836Z" fill="black"/>
<path d="M21.7586 13.9054C21.4359 13.9054 21.1708 14.1678 21.1708 14.4859V27.2569C21.1708 27.5756 21.4359 27.8374 21.7586 27.8374C22.0807 27.8374 22.3463 27.5756 22.3463 27.2569V14.4859C22.3463 14.1678 22.0807 13.9054 21.7586 13.9054Z" fill="black"/>
<path d="M36.4624 20.1516L20.5848 4.46941C19.9912 3.88368 19.1713 3.57602 18.3337 3.6242L7.34329 4.26333C6.82783 4.2941 6.32942 4.45954 5.89918 4.74282L1.8854 0.778599C1.77608 0.674109 1.62914 0.615479 1.47691 0.615479C1.15483 0.615479 0.88916 0.877864 0.88916 1.19598C0.88916 1.34633 0.948523 1.49145 1.05432 1.59942L5.0681 5.56365C4.78127 5.98857 4.61376 6.48083 4.58261 6.98993L3.93608 17.8447C3.88671 18.6719 4.19822 19.4817 4.79185 20.068L20.6695 35.749C21.2202 36.2935 21.9678 36.5994 22.7472 36.5994C23.5259 36.5994 24.2742 36.2935 24.8249 35.749L36.4624 24.2557C37.0131 23.7118 37.3229 22.9734 37.3229 22.2036C37.3229 21.4345 37.0131 20.6955 36.4624 20.1516ZM35.6313 23.4349L23.9938 34.9282C23.3002 35.5818 22.1941 35.5818 21.5005 34.9282L5.62235 19.2466C5.26676 18.8954 5.07985 18.4095 5.10924 17.9132L5.75577 7.05785C5.76987 6.8332 5.82747 6.61377 5.9268 6.41117L8.42241 8.87655C8.10444 9.3514 7.93516 9.9081 7.93516 10.477C7.93516 12.0693 9.26173 13.3795 10.8739 13.3795C12.4861 13.3795 13.8127 12.0693 13.8127 10.477C13.8127 8.88468 12.4861 7.57449 10.8739 7.57449C10.2979 7.57449 9.73428 7.74226 9.2535 8.05573L6.75789 5.59093C6.96302 5.49341 7.18519 5.43594 7.41206 5.42201L18.4025 4.78288C18.4366 4.78113 18.4707 4.78055 18.5048 4.78055C18.9732 4.78055 19.4222 4.96399 19.7531 5.29023L35.6313 20.9724C36.3149 21.6481 36.3149 22.7597 35.6313 23.4349ZM10.4584 10.8874C10.5677 10.9919 10.7147 11.0505 10.8669 11.0505C11.189 11.0505 11.4546 10.7881 11.4546 10.47C11.4546 10.3197 11.3953 10.1745 11.2895 10.0666L10.1193 8.9108C10.3591 8.7976 10.6212 8.73897 10.8863 8.73897C11.8608 8.73897 12.6625 9.53077 12.6625 10.4927C12.6625 11.4551 11.8608 12.2469 10.8863 12.2469C9.91237 12.2469 9.11067 11.4551 9.11067 10.4927C9.11067 10.2291 9.17062 9.96847 9.287 9.73046L10.4584 10.8874Z" stroke="black" stroke-width="0.3"/>
<path d="M15.0329 19.0991C14.4816 19.6436 14.1718 20.3826 14.1718 21.1518C14.1718 22.7441 15.4984 24.0543 17.1106 24.0543C18.7228 24.0543 20.0494 22.7441 20.0494 21.1518C20.0494 20.3826 19.7396 19.6436 19.1889 19.0991C18.0481 17.9753 16.1737 17.9753 15.0329 19.0991ZM18.3572 22.3836C18.0269 22.7093 17.579 22.8927 17.1118 22.8927C16.1449 22.8927 15.3497 22.1067 15.3497 21.1518C15.3497 20.1969 16.1449 19.4114 17.1118 19.4114C17.579 19.4114 18.0269 19.5943 18.3572 19.9205C19.0402 20.5962 19.0402 21.7073 18.3572 22.3836Z" stroke="black" stroke-width="0.3"/>
<path d="M24.176 19.0991C23.6247 19.6436 23.3149 20.3826 23.3149 21.1518C23.3149 22.7441 24.6415 24.0543 26.2537 24.0543C27.8659 24.0543 29.1925 22.7441 29.1925 21.1518C29.1925 20.3826 28.8827 19.6436 28.332 19.0991C27.1912 17.9759 25.3168 17.9759 24.176 19.0991ZM27.5009 22.3836C27.1706 22.7092 26.7221 22.8927 26.2549 22.8927C25.2886 22.8927 24.4928 22.1067 24.4928 21.1518C24.4928 20.1968 25.2886 19.4114 26.2549 19.4114C26.7221 19.4114 27.1706 19.5943 27.5009 19.9205C28.1839 20.5962 28.1839 21.7073 27.5009 22.3836Z" stroke="black" stroke-width="0.3"/>
<path d="M21.7586 13.9054C21.4359 13.9054 21.1708 14.1678 21.1708 14.4859V27.2569C21.1708 27.5756 21.4359 27.8374 21.7586 27.8374C22.0807 27.8374 22.3463 27.5756 22.3463 27.2569V14.4859C22.3463 14.1678 22.0807 13.9054 21.7586 13.9054Z" stroke="black" stroke-width="0.3"/>
</svg>
