<svg width="18" height="18" viewBox="0 0 18 18" fill="none" xmlns="http://www.w3.org/2000/svg">
<path fill-rule="evenodd" clip-rule="evenodd" d="M17.2001 16.7191C17.0524 16.8668 16.877 16.984 16.684 17.064C16.4909 17.1439 16.2841 17.1851 16.0752 17.1851C15.8662 17.1851 15.6594 17.1439 15.4663 17.064C15.2733 16.984 15.0979 16.8668 14.9502 16.7191L12.1455 13.9141C10.9451 14.6861 9.54747 15.0955 8.12023 15.0933C4.00331 15.0933 0.666016 11.756 0.666016 7.63919C0.666016 3.52238 4.00331 0.185059 8.12023 0.185059C12.2371 0.185059 15.5744 3.52238 15.5744 7.63919C15.5767 9.06641 15.1672 10.464 14.395 11.6643L17.2001 14.4693C17.4984 14.7676 17.666 15.1722 17.666 15.5942C17.666 16.0161 17.4984 16.4207 17.2001 16.7191ZM8.12023 2.31007C7.06622 2.31007 6.03588 2.62261 5.1595 3.20818C4.28312 3.79376 3.60006 4.62605 3.19671 5.59982C2.79335 6.57359 2.68782 7.6451 2.89345 8.67885C3.09907 9.71259 3.60663 10.6622 4.35193 11.4074C5.09722 12.1527 6.0468 12.6603 7.08056 12.8659C8.11432 13.0715 9.18583 12.966 10.1596 12.5627C11.1334 12.1593 11.9657 11.4763 12.5513 10.5999C13.1369 9.72352 13.4494 8.69319 13.4494 7.63919C13.4494 6.22582 12.8879 4.87033 11.8885 3.87093C10.8891 2.87153 9.53361 2.31007 8.12023 2.31007Z" fill="#313840"/>
</svg>
