<svg width="30" height="21" viewBox="0 0 30 21" fill="none" xmlns="http://www.w3.org/2000/svg">
<path d="M30 0.585205H14V9.50384C11.9123 8.58102 9.92967 7.77992 9.24167 7.73229C8.03067 7.65092 5.85367 8.01476 5 8.16955V6.5389H0V18.4463H5V17.1494L15.0247 20.0449C15.2337 20.1054 15.447 20.1355 15.6623 20.1355C15.7523 20.1355 15.842 20.1299 15.9323 20.1196L25.7377 18.9686C26.151 18.9629 26.5363 18.8012 26.8213 18.5141C27.1187 18.223 27.2823 17.8327 27.2823 17.4153C27.2823 17.0571 27.1797 16.7303 27.0097 16.4617H30V0.585205ZM29.3333 3.56205H24.3333V1.24673H29.3333V3.56205ZM20.6667 1.24673H23.6667V6.27727L22.194 4.49943L20.6667 6.29579V1.24673ZM20 1.24673V3.56205H14.6667V1.24673H20ZM4.33333 17.7848H0.666667V7.20042H4.33333V17.7848ZM26.6157 17.4153C26.6157 17.6548 26.5227 17.8774 26.35 18.0464C26.183 18.2144 25.958 18.307 25.717 18.307L15.8543 19.4627C15.6373 19.4879 15.4207 19.47 15.2113 19.4098L5 16.4607V8.84232C5.71567 8.71001 8.008 8.31012 9.19533 8.39248C9.956 8.44474 13.1827 9.79094 17.8257 11.9925C18.1473 12.1456 18.287 12.5187 18.1433 12.8432C18.039 13.082 17.803 13.2361 17.5427 13.2361C17.496 13.2361 17.4457 13.2299 17.393 13.2186L11.4787 11.8549C11.117 11.7679 10.7553 11.9783 10.656 12.3305C10.6373 12.3917 10.629 12.4516 10.629 12.5191C10.629 12.7761 10.7793 13.0169 11.0127 13.1323L17.8033 16.4849L25.9717 16.4617C26.3947 16.5428 26.6157 16.9989 26.6157 17.4153ZM11.2947 12.52L11.3227 12.5009L11.3237 12.4979L14 13.1154V13.8606L11.2947 12.52ZM17.9597 15.8227L14.5767 14.1464H14.6667V13.2692L17.2467 13.8643C17.351 13.8864 17.448 13.8977 17.5427 13.8977C18.0687 13.8977 18.5447 13.5874 18.754 13.1081C19.0427 12.4562 18.7613 11.7044 18.1137 11.3958C17.135 10.9317 15.9043 10.3569 14.6667 9.80086V4.22357H20V8.10505L22.1873 5.53306L24.3333 8.12358V4.22357H29.3333V15.8002L17.9597 15.8227Z" fill="#313840"/>
</svg>
