<svg width="41" height="32" viewBox="0 0 41 32" fill="none" xmlns="http://www.w3.org/2000/svg">
<path d="M11.1372 0.41752C10.9267 0.45627 10.7603 0.653726 10.7641 0.86035V18.2137C9.5796 18.1603 8.35296 18.1307 7.09085 18.1307V17.6878C7.09081 17.456 6.87209 17.2451 6.63169 17.245H1.12182C1.0932 17.2406 1.06434 17.2406 1.03572 17.245C0.825252 17.2835 0.658893 17.4812 0.66266 17.6878V29.6442C0.662669 29.8761 0.8814 30.087 1.12182 30.0871H6.63169C6.87211 30.087 7.09084 29.8761 7.09085 29.6442V27.527C11.0578 29.607 13.5664 31.4155 20.4064 31.4155C23.9819 31.4155 28.3593 29.9503 31.8853 28.5094C35.4001 27.0732 38.0528 25.6402 38.0695 25.6311C38.0739 25.6267 38.0796 25.6355 38.0839 25.6311C38.7752 25.2718 39.2741 24.9852 39.6335 24.5932C39.9953 24.1987 40.1501 23.6961 40.1501 23.0986C40.1501 22.6039 39.8786 22.1842 39.5331 21.9224C39.1876 21.6606 38.7814 21.5087 38.3709 21.4104C37.5499 21.2136 36.7064 21.2304 36.4768 21.2304V0.86035C36.4768 0.628492 36.2581 0.417542 36.0177 0.41752H25.4571C25.4285 0.414863 25.3996 0.414863 25.371 0.41752C25.1306 0.439264 24.9324 0.670006 24.9549 0.901867C24.9774 1.13373 25.2167 1.32491 25.4571 1.30318H35.5585V21.2304C35.5596 21.2632 35.5644 21.2957 35.5729 21.3274C34.8409 21.4625 34.0664 21.7216 33.3919 21.9777C32.5032 22.3152 31.8593 22.6073 31.7561 22.6558C31.4066 21.5751 30.364 20.7876 29.1303 20.7876H20.5786C19.3163 19.6569 17.4259 19.0093 15.1548 18.6289C14.0763 18.4482 12.9101 18.3318 11.6824 18.2552V1.30318H22.7022C22.9447 1.30628 23.1678 1.09429 23.1678 0.86035C23.1678 0.626406 22.9447 0.414261 22.7022 0.41752C18.8496 0.41752 14.9833 0.41752 11.1372 0.41752ZM1.58097 18.1307H6.17254V29.2014H1.58097V18.1307ZM7.09085 19.0163C9.99503 19.0163 12.7301 19.1209 14.9969 19.5007C17.2638 19.8804 19.0399 20.5353 20.0764 21.5349C20.1611 21.6212 20.2831 21.6724 20.4064 21.6733H29.1303C30.1558 21.6733 30.967 22.4557 30.967 23.4446C30.967 24.4336 30.1558 25.2159 29.1303 25.2159H15.8148C15.5719 25.2115 15.348 25.4245 15.348 25.6588C15.348 25.8931 15.5719 26.1055 15.8148 26.1016H29.1303C30.6108 26.1016 31.8257 24.9693 31.8853 23.5553C31.9554 23.5509 32.0247 23.5327 32.0862 23.5C32.0862 23.5 32.8157 23.1438 33.7363 22.7942C34.6569 22.4446 35.7904 22.1161 36.4768 22.1161C36.7064 22.1161 37.47 22.1215 38.1413 22.2822C38.4769 22.3626 38.7881 22.4738 38.9735 22.6143C39.1589 22.7548 39.2318 22.878 39.2318 23.0986C39.2318 23.5742 39.157 23.7805 38.9448 24.012C38.7326 24.2434 38.3185 24.5033 37.6391 24.8561C37.6343 24.856 37.6295 24.856 37.6247 24.8561C37.6247 24.8561 35.0171 26.2725 31.5409 27.693C28.0647 29.1135 23.7182 30.5299 20.4064 30.5299C15.1264 30.5916 10.6134 28.3718 7.09085 26.5721V19.0163Z" fill="black" stroke="black" stroke-width="0.5"/>
</svg>
