<svg width="23" height="20" viewBox="0 0 23 20" fill="none" xmlns="http://www.w3.org/2000/svg">
<path d="M21.9878 0.0493139C22.6394 -0.17629 23 0.412868 23 0.990555L19.3587 19.1849C19.3587 19.7624 18.4387 20.1873 17.9702 19.9163L12.5347 15.8133L9.04212 19.0808L9.42257 13.5749L9.42984 13.4697L9.44673 13.2252L9.4492 13.2228C9.54144 13.1334 12.199 10.5569 14.8073 8.10149C15.1795 7.75102 15.5519 7.40335 15.914 7.06524L15.9141 7.06521C17.8351 5.2717 19.468 3.7472 19.2578 3.50059C18.883 3.06085 6.41153 11.8659 6.41153 11.8659L6.35408 11.9099L6.10919 11.8653L0.646433 9.98279C0.177953 9.71189 -0.222392 9.46599 0.141035 8.728C0.504461 7.99001 21.9878 0.0493139 21.9878 0.0493139Z" fill="#313840"/>
</svg>
