<svg width="20" height="19" viewBox="0 0 20 19" fill="none" xmlns="http://www.w3.org/2000/svg">
<path fill-rule="evenodd" clip-rule="evenodd" d="M10 19C4.47723 19 0 14.7466 0 9.5C0 4.25337 4.47723 0 10 0C15.5228 0 20 4.25337 20 9.5C20 14.7466 15.5228 19 10 19ZM10 0.890625C4.99509 0.890625 0.9375 4.74533 0.9375 9.5C0.936088 10.6589 1.18166 11.806 1.65943 12.8723C2.13719 13.9385 2.83724 14.9019 3.71741 15.7043C3.89197 15.44 4.2683 14.9048 4.64286 14.5893C5.21071 14.1109 5.73661 13.9955 5.73661 13.9955C6.17851 13.8428 6.63432 13.7293 7.09821 13.6562C7.60491 13.5829 8.15134 13.6902 8.39286 13.4866C8.64464 13.2746 8.57143 12.7465 8.48214 12.6384C8.33661 12.4624 8.11741 12.3084 7.9942 12.2287C7.18795 11.9216 6.65223 11.4242 6.33929 10.8571C6.06473 10.3592 6.04866 9.79348 5.98214 9.28795C5.91429 8.7735 5.7375 8.29596 5.71429 7.88839C5.56652 5.31576 6.41563 3.1808 9.97768 3.1808C13.6 3.1808 14.3339 5.22373 14.2411 7.88839C14.2246 8.36551 14.0853 8.81167 14.0179 9.24553C13.9446 9.71714 13.9518 10.1714 13.7701 10.5662C13.4299 11.305 12.8732 11.886 12.004 12.2245C11.8168 12.3332 11.652 12.4735 11.5179 12.6384C11.442 12.7385 11.3406 13.1982 11.5625 13.4442C11.7567 13.6592 12.4433 13.5731 12.9018 13.6562C13.3657 13.7407 13.8227 13.8559 14.2696 14.001C14.6836 14.1453 15.0671 14.3589 15.4018 14.6317C15.792 14.9604 16.1138 15.446 16.2741 15.7123C17.1568 14.9097 17.859 13.9453 18.3383 12.8776C18.8176 11.8098 19.0639 10.6608 19.0625 9.5C19.0625 4.74533 15.0049 0.890625 10 0.890625Z" fill="#313840"/>
</svg>
