<svg width="27" height="9" viewBox="0 0 27 9" fill="none" xmlns="http://www.w3.org/2000/svg">
<g opacity="0.36">
<path fill-rule="evenodd" clip-rule="evenodd" d="M17.9079 0.438477C15.8365 0.438477 14.3812 1.54594 14.3683 3.12931C14.3553 4.3023 15.4092 4.95662 16.2017 5.34639C17.0193 5.74477 17.2924 6.00102 17.2896 6.35756C17.2816 6.90422 16.6355 7.15309 16.0352 7.15309C15.1979 7.15309 14.7517 7.03004 14.0658 6.72672L13.7939 6.5969L13.5007 8.42175C13.9904 8.64909 14.8948 8.84567 15.8353 8.85613C18.0333 8.85613 19.4639 7.76127 19.4809 6.07116C19.4895 5.14058 18.93 4.43673 17.7206 3.85531C16.9905 3.47693 16.5391 3.22652 16.5459 2.84352C16.5465 2.50513 16.9247 2.14243 17.746 2.14243C18.4316 2.13074 18.9247 2.28917 19.3131 2.45591L19.4997 2.54943L19.7846 0.781483C19.3709 0.617209 18.718 0.438477 17.9079 0.438477ZM11.4049 0.580601L10.0945 8.73554H12.1878L13.4988 0.580293L11.4049 0.580601ZM8.33802 0.588599L6.28797 6.14592L6.06953 5.01692C5.5591 3.63197 4.45359 2.17935 3.16702 1.59055L5.04188 8.72754L7.25877 8.72631L10.5552 0.588599H8.33802ZM23.538 0.589215C23.0362 0.589215 22.6605 0.732877 22.439 1.266L19.3307 8.7383H21.53C21.53 8.7383 21.8896 7.73236 21.9709 7.5121C22.211 7.5121 24.3469 7.51671 24.6519 7.51671C24.7167 7.80127 24.9068 8.738 24.9068 8.738H26.8514L25.1561 0.588907L23.538 0.589215ZM23.686 2.78753L23.8253 3.49077L24.312 5.84413H22.5731C22.747 5.37592 23.4073 3.5646 23.4073 3.5646C23.3943 3.58675 23.5797 3.0927 23.686 2.78753Z" fill="white"/>
<path fill-rule="evenodd" clip-rule="evenodd" d="M4.3871 0.58419H1.01001L0.990234 0.724469C3.61621 1.39971 5.34862 3.05814 6.06977 5.01897L5.33565 1.27113C5.20959 0.75554 4.84191 0.602648 4.3871 0.58419Z" fill="white"/>
</g>
</svg>
